<?xml version="1.0" encoding="utf-8"?>
<!-- Generator: Adobe Illustrator 16.0.4, SVG Export Plug-In . SVG Version: 6.00 Build 0)  -->
<!DOCTYPE svg PUBLIC "-//W3C//DTD SVG 1.1//EN" "http://www.w3.org/Graphics/SVG/1.1/DTD/svg11.dtd">
<svg version="1.1" id="Layer_1" xmlns="http://www.w3.org/2000/svg" xmlns:xlink="http://www.w3.org/1999/xlink" x="0px" y="0px"
	 width="240px" height="240px" viewBox="0 0 240 240" enable-background="new 0 0 240 240" xml:space="preserve">
<g id="Layer_1_1_">
	<rect x="-0.5" y="-0.5" fill="#EEEEEE" width="241" height="241"/>
</g>
<g id="Layer_2">
	<g id="XMLID_2_">
		<g>
			<path fill="#D7B9A8" d="M217.13,9.737c5.87,16.96,7.67,34.771,7.67,52.66c0,19.52-10.079,37.99-19.67,54.34
				c-6-12.85-11.62-26.84-20.67-37.93c-4.44-5.45-9.19-8.021-15.71-10.681c-2.779-1.14-13.84-5.949-15.29-8.39
				c-5.489-9.31,17.83-27.5,23.101-32.76C185.66,17.867,205.141,13.728,217.13,9.737z"/>
			<path fill="#3B2314" d="M196.459,135.896c3.721-6.289,9.91-11.1,17.51-10.6c-0.76,5.84-1.38,11.75-2.14,17.579
				c-3.13-2.5-6.63-3.479-10.11-3.159c-2.83,0.27-5.65,1.399-8.26,3.279C194.12,140.559,195.13,138.139,196.459,135.896z"/>
			<path fill="#958378" d="M138.6,192.736c0-9,1.11-17.199,3.631-25.159l0.47,0.12c23.95,3.32,38.729-3.59,47.521-11.33
				c8.229-7.25,11.209-15.229,11.549-16.2l-0.049-0.449c3.479-0.319,6.979,0.659,10.109,3.159c-2.24,17.25-5.65,33.932-16.98,46.771
				c-8.149,9.229-19.979,10.149-29.09,16.92c-1,0.74-1.939,1.529-2.85,2.35c0.09-0.43,2.55-12.439,0.35-13.18
				c-1.27-0.42-14.18-0.37-25.18-0.24C138.3,194.627,138.471,193.707,138.6,192.736z"/>
			<path d="M166.859,136.037c15.271-3.641,9.381,14.67,4.4,21.949h-0.01c-5.5,0.091-11.55-19.369-4.83-21.819
				C166.561,136.117,166.709,136.077,166.859,136.037z"/>
			<path fill="#D9E14C" d="M166.359,136.008c8.711-3.199,16.601-0.601,22.75,6.439c1.281,8.42-7.31,12.3-14.659,14.67
				c-1.101,0.351-2.16,0.641-3.19,0.869c4.98-7.279,10.87-25.59-4.4-21.949c-0.149,0.04-0.299,0.08-0.439,0.13L166.359,136.008z"/>
			<path fill="#D9E14C" d="M166.42,136.167c-6.72,2.45-0.67,21.91,4.83,21.819c-7.93,1.75-13.9-0.27-20.8-5.449
				c-4.07-3.051,10.54-14.02,13.159-15.34c0.931-0.461,1.841-0.86,2.75-1.189L166.42,136.167z"/>
			<path fill="#3B2314" d="M156.49,111.777c0.18,0.86-0.16,0.82-0.9,0.94c-0.52,0.09-1.01,0.25-1.42-0.21
				c-0.439-0.48-0.47-1.08-0.939-1.721c-1.36-1.83-2.791-3.819-4.121-5.72c-1.379-1.97-2.609-4.02-3.799-6.11
				c-0.641-1.13-1.261-2.27-1.86-3.42v-0.01c-0.091-0.15-0.171-0.29-0.24-0.44c-1.399-2.8,0.29-5.239-1.351-8.229
				c-1.199-2.17-5.639-4.89-7.31-7.04c-0.11-0.14-0.21-0.28-0.29-0.42c-1.885,3.089-6.678,6.549-11.697,6.666
				c-5.231,0.122-10.708-3.229-13.393-6.266c-0.18-0.25-0.38-0.49-0.57-0.73c-0.38,0.58-0.76,1.17-1.12,1.76
				c-0.01,0.021-0.02,0.03-0.03,0.04c-1.76,2.48-4.01,4.771-5.51,7.32c-1.51,2.59-2.13,5.5-3.37,8.189
				c-0.01,0.011-0.01,0.021-0.02,0.03c-0.2,0.38-0.39,0.76-0.58,1.141c-0.76,1.489-1.51,3-2.23,4.51
				c-1.69,3.52-3.29,7.08-4.81,10.68c-0.89,0-1.78,0-2.67,0c1.22-5.14,2.59-10.2,4.07-15.22c4.43-15.04,9.74-29.71,14.25-44.891
				c2.12-0.09,4.25-0.35,6.37-0.449c0.11-0.011,0.23-0.021,0.35-0.011c2.4,9.641,5.55,19.29,9.13,28.57
				c3.87-9.05,6.69-18.92,8.49-28.6c0.87,0.029,1.75,0.06,2.62,0.109c0.05,0,0.09,0,0.14,0.011c1.35,0.09,2.7,0.199,4.051,0.22
				c0.06,0,0.119,0,0.189,0.02c0.09,0.141,0.32,1.5,0.359,1.61c1.011,3.979,2.15,7.93,3.361,11.85c1.209,3.91,2.5,7.79,3.799,11.67
				c1.301,3.87,2.641,7.73,3.94,11.601c0.92,2.71,1.82,5.43,2.7,8.17c0.38,1.17,0.75,2.34,1.12,3.52c0.61,1.96,1.21,3.931,1.78,5.91
				c0.279,0.98,0.56,1.971,0.83,2.96C156,110.457,156.35,111.087,156.49,111.777z"/>
			<path fill="#F3E7DE" d="M163.609,137.197c-2.619,1.32-17.229,12.289-13.159,15.34c6.899,5.181,12.87,7.199,20.8,5.449h0.01
				c1.03-0.229,2.09-0.52,3.19-0.869c7.35-2.37,15.94-6.25,14.659-14.67c-6.149-7.04-14.039-9.641-22.75-6.439
				C165.45,136.337,164.54,136.736,163.609,137.197z M149.459,151.396c-8.92-16.069-16.311-38.79-6.01-55.859
				c0.6,1.15,1.22,2.29,1.859,3.42c1.19,2.091,2.42,4.141,3.801,6.11c1.33,1.9,2.76,3.89,4.119,5.72
				c0.471,0.641,0.5,1.24,0.94,1.721c0.41,0.46,0.899,0.3,1.42,0.21c0.74-0.12,1.08-0.08,0.899-0.94
				c-0.139-0.69-0.489-1.32-0.68-1.99c-0.27-0.989-0.55-1.979-0.83-2.96c-0.569-1.979-1.17-3.95-1.779-5.91
				c-0.37-1.18-0.74-2.35-1.12-3.52c15.94-0.021,27.04,9.59,34.14,19.21c7.12,9.64,10.24,19.291,10.24,19.291
				c-1.33,2.24-2.34,4.66-3,7.1c2.609-1.88,5.43-3.01,8.26-3.279l0.051,0.449c-0.34,0.971-3.32,8.95-11.551,16.2
				c-8.789,7.739-23.57,14.649-47.52,11.33l-0.471-0.12C143.95,162.127,146.33,156.787,149.459,151.396z"/>
			<path fill="#3B2314" d="M143.209,95.087c0.07,0.15,0.15,0.29,0.24,0.44v0.01C143.359,95.388,143.29,95.237,143.209,95.087z"/>
			<path fill="#3B2314" d="M141.859,86.857c1.641,2.99-0.049,5.43,1.351,8.229c-0.489-0.92-0.96-1.85-1.44-2.77
				c-1.149-2.24-2.319-4.48-3.569-6.68c-1.13-1.99-2.32-3.95-3.65-5.82C136.221,81.968,140.66,84.688,141.859,86.857z"/>
			<path fill="#958378" d="M137.92,52.497c3.58,0.221,7.141,0.521,10.68,0.9c17.4-30.11,40.25-45.271,73.33-50.33
				c14.58,30.83,10.07,62.33-1.5,92.92c-3.459,9.15-5.15,19.14-6.459,29.311c-7.601-0.5-13.791,4.31-17.511,10.601
				c0,0-3.12-9.65-10.239-19.291c-7.101-9.62-18.201-19.23-34.141-19.21c-0.88-2.74-1.78-5.46-2.7-8.17
				c-1.3-3.87-2.64-7.73-3.94-11.601c-1.299-3.88-2.59-7.76-3.799-11.67c-1.211-3.92-2.351-7.87-3.361-11.85
				C138.24,53.997,138.01,52.638,137.92,52.497z M224.8,62.397c0-17.89-1.8-35.7-7.67-52.66c-11.989,3.99-31.47,8.13-40.569,17.24
				c-5.271,5.26-28.59,23.45-23.101,32.76c1.45,2.44,12.511,7.25,15.29,8.39c6.52,2.66,11.27,5.23,15.71,10.681
				c9.05,11.09,14.67,25.08,20.67,37.93C214.721,100.388,224.8,81.917,224.8,62.397z"/>
			<path fill="#95877E" d="M133.68,52.258c1.35,0.05,2.7,0.13,4.051,0.22C136.38,52.457,135.029,52.348,133.68,52.258z"/>
			<path fill="#3B2314" d="M133.54,52.247c-0.87-0.05-1.75-0.08-2.62-0.109v-0.011C131.79,52.147,132.67,52.188,133.54,52.247z"/>
			<path fill="#958378" d="M130.92,52.138c-1.8,9.68-4.62,19.55-8.49,28.6c-3.58-9.28-6.729-18.93-9.13-28.57
				C119.16,51.917,125.05,51.917,130.92,52.138z"/>
			<path fill="#3B2314" d="M134.26,79.397c-4.01,6.5-8.029,13.09-12,19.67c-3.9-6.73-8.27-13.18-13.09-19.27
				C114.43,85.747,130.41,85.707,134.26,79.397z"/>
			<path fill="#D7B9A8" d="M138.08,195.497c-4.301,16.94-25.86,16.312-32.66-0.449c8.9,0.271,16.84,0.688,16.84,0.688
				S129.6,195.598,138.08,195.497z"/>
			<path fill="#F3E7DE" d="M105.42,195.048c6.8,16.761,28.359,17.39,32.66,0.449c11-0.13,23.91-0.181,25.18,0.239
				c2.2,0.74-0.26,12.75-0.35,13.181c-8.15,7.399-13.11,17.649-24.311,23.319c-23.629,11.931-46.629-2.239-58.34-24.5
				c0,0-0.45-9.92,1-12C82.07,194.587,94.459,194.707,105.42,195.048z"/>
			<path fill="#3B2314" d="M113.3,52.157v0.01c-0.12-0.01-0.24,0-0.35,0.011C113.07,52.167,113.18,52.157,113.3,52.157z"/>
			<path fill="#3B2314" d="M101.939,88.188c1.5-2.55,3.75-4.84,5.51-7.32c-3.22,5.04-6.17,10.22-8.88,15.51
				C99.81,93.688,100.43,90.777,101.939,88.188z"/>
			<path fill="#D7B9A8" d="M104.6,192.736c11.33,0,22.66,0,34,0c-0.129,0.971-0.3,1.891-0.52,2.761
				c-8.48,0.101-15.82,0.239-15.82,0.239s-7.94-0.42-16.84-0.688C105.11,194.309,104.84,193.537,104.6,192.736z"/>
			<path fill="#958378" d="M104.6,192.736c0-7.659,0.61-14.77-2-22c-0.41-1.129-0.83-2.25-1.26-3.369
				c-2.04-5.359-4.28-10.641-6.41-15.971c8.75-11.47,17.15-42.439,3.04-53.85c0.21-0.381,0.4-0.761,0.58-1.141
				c0.01-0.01,0.01-0.02,0.02-0.03c2.71-5.29,5.66-10.47,8.88-15.51c0.01-0.01,0.02-0.02,0.03-0.04c0.41-0.569,0.79-1.16,1.12-1.76
				c0.17,0.25,0.36,0.5,0.57,0.73c4.82,6.09,9.19,12.539,13.09,19.27c3.971-6.58,7.99-13.17,12-19.67c0.08,0.14,0.18,0.28,0.29,0.42
				c1.33,1.87,2.521,3.83,3.65,5.82c1.25,2.199,2.42,4.439,3.569,6.68c0.48,0.92,0.951,1.85,1.44,2.77
				c0.08,0.15,0.149,0.301,0.24,0.45c-10.3,17.07-2.91,39.79,6.01,55.86c-3.13,5.39-5.51,10.729-7.229,16.18
				c-2.521,7.96-3.631,16.16-3.631,25.16C127.26,192.736,115.93,192.736,104.6,192.736z"/>
			<path fill="#F3E7DE" d="M93.93,152.146c0.31-0.229,0.51-0.51,0.61-0.819l0.39,0.069c2.13,5.33,4.37,10.61,6.41,15.971
				c-23.95,3.32-38.71-3.59-47.5-11.33c-8.45-7.439-11.36-15.63-11.58-16.26c3.83-0.51,7.78,0.66,11.34,3.22l1.55,0.062
				c-0.48,7.729,7.71,11.398,14.78,13.68c1.05,0.34,2.07,0.619,3.06,0.84c0.01,0,0.01,0.01,0.01,0.01c0.02,0,0.03,0,0.05,0
				C81.03,159.367,87,157.337,93.93,152.146z"/>
			<path fill="#D7B9A8" d="M67.84,26.978c5.26,5.26,28.58,23.45,23.09,32.76c-1.44,2.44-12.51,7.25-15.28,8.39
				c-6.53,2.66-11.27,5.23-15.72,10.681c-9.04,11.09-14.67,25.08-20.67,37.93c-9.59-16.35-19.66-34.82-19.66-54.34
				c0-17.89,1.79-35.7,7.66-52.66C39.25,13.728,58.729,17.867,67.84,26.978z"/>
			<path fill="#D9E14C" d="M73.05,157.587c5.49,0,11.61-19.358,4.9-21.81l0.06-0.16c0.91,0.34,1.83,0.74,2.75,1.199
				c2.43,1.211,15.09,10.69,13.78,14.511c-0.1,0.312-0.3,0.59-0.61,0.819C87,157.337,81.03,159.367,73.05,157.587z"/>
			<path fill="#958378" d="M81.26,195.736c-1.45,2.08-1,12-1,12c-38.86-10.34-41.71-35.699-45.18-64.739
				c2.25-1.83,4.68-2.89,7.18-3.22c0.22,0.63,3.13,8.82,11.58,16.26c8.79,7.74,23.55,14.65,47.5,11.33
				c0.43,1.119,0.85,2.24,1.26,3.369c2.61,7.23,2,14.341,2,22c0.24,0.801,0.51,1.57,0.82,2.312
				C94.459,194.707,82.07,194.587,81.26,195.736z"/>
			<path d="M77.95,135.777c6.71,2.449,0.59,21.81-4.9,21.81c-0.02,0-0.04-0.01-0.06-0.01c-4.98-7.29-10.73-25.56,4.52-21.931
				C77.66,135.688,77.81,135.729,77.95,135.777z"/>
			<path fill="#D9E14C" d="M55.26,142.066c6.16-7.039,14.05-9.649,22.75-6.449l-0.06,0.16c-0.14-0.051-0.29-0.09-0.44-0.131
				c-15.25-3.629-9.5,14.641-4.52,21.931c-0.99-0.22-2.01-0.5-3.06-0.841c-7.07-2.279-15.26-5.949-14.78-13.68
				C55.17,142.736,55.209,142.407,55.26,142.066z"/>
			<path fill="#F3E7DE" d="M97.97,97.548c14.11,11.409,5.71,42.38-3.04,53.851l-0.39-0.07c1.31-3.819-11.35-13.301-13.78-14.51
				c-0.92-0.461-1.84-0.86-2.75-1.2c-8.7-3.2-16.59-0.591-22.75,6.45c-0.05,0.34-0.09,0.67-0.11,0.99l-1.55-0.062
				c-0.93-3.46-2.59-6.89-4.83-9.79c0.97-2.58,4.04-10.029,9.68-17.47c6.96-9.2,17.84-18.39,33.48-18.34l0.4,0.12
				c-1.48,5.02-2.85,10.08-4.07,15.22c0.89,0,1.78,0,2.67,0c1.52-3.6,3.12-7.16,4.81-10.68
				C96.459,100.548,97.209,99.037,97.97,97.548z"/>
			<path fill="#3B2314" d="M42.26,139.777c-2.5,0.33-4.93,1.39-7.18,3.22c-0.01-0.101-0.03-0.188-0.04-0.29
				c-0.48-4.02-0.98-8.109-1.59-12.239c-0.19-1.721-0.37-3.44-0.54-5.159c6.55-0.5,12.05,2.949,15.86,7.898
				c2.24,2.9,3.9,6.33,4.83,9.79C50.04,140.438,46.09,139.268,42.26,139.777z"/>
			<path fill="#958378" d="M90.93,59.737c5.49-9.31-17.83-27.5-23.09-32.76c-9.11-9.11-28.59-13.25-40.58-17.24
				c-5.87,16.96-7.66,34.771-7.66,52.66c0,19.52,10.07,37.99,19.66,54.34c6-12.85,11.63-26.84,20.67-37.93
				c4.45-5.45,9.19-8.021,15.72-10.681C78.42,66.987,89.49,62.178,90.93,59.737z M106.58,52.627
				c-4.51,15.181-9.82,29.851-14.25,44.891l-0.4-0.12c-15.64-0.05-26.52,9.14-33.48,18.34c-5.64,7.44-8.71,14.89-9.68,17.47
				c-3.81-4.949-9.31-8.399-15.86-7.899c0.17,1.721,0.35,3.439,0.54,5.16c-0.85-5.859-1.94-11.801-3.52-17.729
				C24.12,90.959,12.69,73.3,12.6,49.899c-0.06-14.63,3.48-30.98,8.33-44.83c35.08,0,56.23,20.38,73.67,48.67
				c6.06-0.8,12.19-1.31,18.35-1.56C110.83,52.277,108.7,52.537,106.58,52.627z"/>
		</g>
		<g>
			<polyline fill="none" stroke="#231F20" stroke-width="2" stroke-miterlimit="10" points="122.16,222.587 122.189,215.258 
				122.221,207.917 			"/>
		</g>
	</g>
	<g>
		<g>
			<defs>
				<path id="SVGID_1_" d="M80.091,207.736c-52.074-13.83-39.602-54.539-50.422-95c-5.82-21.779-17.271-39.439-17.361-62.84
					c-0.06-14.629,3.486-30.979,8.346-44.83c35.143,0,56.33,20.381,73.803,48.67c17.801-2.34,36.266-2.238,54.096-0.34
					c17.432-30.109,40.323-45.27,73.463-50.33c14.605,30.83,10.088,62.33-1.502,92.92c-11.352,29.941-3.748,68.911-25.627,93.661
					c-8.164,9.229-20.016,10.149-29.143,16.92c-9.987,7.41-14.736,19.371-27.209,25.67
					C114.863,244.167,91.822,229.997,80.091,207.736z"/>
			</defs>
			<clipPath id="SVGID_2_">
				<use xlink:href="#SVGID_1_"  overflow="visible"/>
			</clipPath>
			<path clip-path="url(#SVGID_2_)" fill="#3B2314" d="M209.98,155.309c-5.699,4.66-12.65,4.23-18.521,0
				c2.511,9.34,10.289,18.48,20.681,17.691c-0.388-3.795-0.851-8.08-1.381-12.107C210.516,159.027,210.255,157.166,209.98,155.309z"
				/>
		</g>
		<g>
			<defs>
				<path id="SVGID_3_" d="M80.091,207.736c-52.074-13.83-39.602-54.539-50.422-95c-5.82-21.779-17.271-39.439-17.361-62.84
					c-0.06-14.629,3.486-30.979,8.346-44.83c35.143,0,56.33,20.381,73.803,48.67c17.801-2.34,36.266-2.238,54.096-0.34
					c17.432-30.109,40.323-45.27,73.463-50.33c14.605,30.83,10.088,62.33-1.502,92.92c-11.352,29.941-3.748,68.911-25.627,93.661
					c-8.164,9.229-20.016,10.149-29.143,16.92c-9.987,7.41-14.736,19.371-27.209,25.67
					C114.863,244.167,91.822,229.997,80.091,207.736z"/>
			</defs>
			<clipPath id="SVGID_4_">
				<use xlink:href="#SVGID_3_"  overflow="visible"/>
			</clipPath>
			<path clip-path="url(#SVGID_4_)" fill="#3B2314" d="M34.075,155.309c5.7,4.66,12.649,4.23,18.521,0
				c-2.511,9.34-10.291,18.48-20.681,17.691C32.484,167.09,33.205,161.18,34.075,155.309z"/>
		</g>
	</g>
</g>
</svg>
