<?xml version="1.0" encoding="UTF-8" standalone="no"?>
<svg width="50px" height="50px" viewBox="0 0 50 50" version="1.1" xmlns="http://www.w3.org/2000/svg" xmlns:xlink="http://www.w3.org/1999/xlink" xmlns:sketch="http://www.bohemiancoding.com/sketch/ns">
    <!-- Generator: Sketch 3.5.1 (25234) - http://www.bohemiancoding.com/sketch -->
    <title>email-icon</title>
    <desc>Created with Sketch.</desc>
    <defs></defs>
    <g id="Page-1" stroke="none" stroke-width="1" fill="none" fill-rule="evenodd" sketch:type="MSPage">
        <g id="email-icon" sketch:type="MSLayerGroup">
            <g id="Page-1" sketch:type="MSShapeGroup">
                <g id="Group">
                    <path d="M24.8671234,49.7342469 C38.6008566,49.7342469 49.7342469,38.6008566 49.7342469,24.8671234 C49.7342469,11.1333904 38.6008566,0 24.8671234,0 C11.1333904,0 0,11.1333904 0,24.8671234 C0,38.6008566 11.1333904,49.7342469 24.8671234,49.7342469 L24.8671234,49.7342469 Z" id="Oval-1" fill="#E67E22"></path>
                    <g id="black218" transform="translate(9.016393, 12.295082)" fill="#FFFFFF">
                        <path d="M29.1826602,24.783657 C29.9027692,24.783657 30.526745,24.5510344 31.0568128,24.0923113 L21.9802355,15.2230849 C21.7612654,15.3757027 21.5507515,15.5235377 21.350919,15.6644157 C20.6708656,16.1535754 20.1198798,16.5357721 19.6975168,16.8092668 C19.2733735,17.0827614 18.7099261,17.3614738 18.0076196,17.6467082 C17.3035329,17.9319426 16.6479578,18.0745599 16.0395592,18.0745599 L16.0048443,18.0745599 C15.3964457,18.0745599 14.7408707,17.9319426 14.0367839,17.6467082 C13.3326971,17.3614738 12.7692498,17.0827614 12.3468867,16.8092668 C11.9245237,16.5357721 11.373538,16.1535754 10.6934845,15.6644157 C10.5043335,15.5287554 10.2938196,15.3791812 10.0659483,15.2213457 L0.985810467,24.0923113 C1.51587831,24.5510344 2.14029911,24.783657 2.86174326,24.783657 L29.1826602,24.783657 L29.1826602,24.783657 Z" id="Fill-1"></path>
                        <path d="M1.80650325,9.63840287 C1.1264498,9.19533287 0.525172169,8.68878082 0,8.11831191 L0,21.6125977 L8.00219966,13.7947385 C6.40131466,12.7024993 4.33756607,11.3180686 1.80650325,9.63840287 L1.80650325,9.63840287 L1.80650325,9.63840287 Z" id="Fill-2"></path>
                        <path d="M30.2552576,9.63840287 C27.819883,11.2484993 25.7507937,12.6346691 24.0453193,13.7977822 L32.0444035,21.6125977 L32.0444035,8.11831191 C31.531693,8.67704098 30.9353111,9.18315828 30.2552576,9.63840287 L30.2552576,9.63840287 L30.2552576,9.63840287 Z" id="Fill-3"></path>
                        <path d="M29.1826602,0.186532902 L2.86174326,0.186532902 C1.94358208,0.186532902 1.23593484,0.488724899 0.742362015,1.09528293 C0.247008943,1.69966693 0,2.45710356 0,3.3658536 C0,4.09981056 0.328455136,4.89464074 0.984030221,5.75077893 C1.63960531,6.6064823 2.33657109,7.27913125 3.07537261,7.76829096 C3.48037827,8.0470033 4.70251621,8.87748779 6.74178645,10.25844 C7.8424227,11.0023975 8.7988591,11.6528712 9.62266738,12.2133396 C10.3231936,12.6907594 10.9284768,13.1033929 11.4273903,13.4464569 C11.4848032,13.4855896 11.5733704,13.548202 11.6930919,13.6316853 C11.8217145,13.7216907 11.985497,13.836915 12.1871098,13.9795322 C12.574758,14.2530269 12.8965372,14.4739097 13.1520024,14.6421806 C13.4092477,14.8121907 13.7185652,15.0004629 14.0821802,15.2109102 C14.4453501,15.4200532 14.7893824,15.5778888 15.1111616,15.681808 C15.4329408,15.7870317 15.7302416,15.8396435 16.0048443,15.8396435 L16.0395592,15.8396435 C16.3141619,15.8396435 16.613243,15.7870317 16.9350222,15.681808 C17.2563564,15.5778888 17.5990534,15.4200532 17.9622234,15.2109102 C18.3258384,15.0004629 18.6351558,14.8121907 18.8924011,14.6421806 C19.1496466,14.4739097 19.4714257,14.2530269 19.859074,13.9795322 C20.0589065,13.836915 20.222689,13.7216907 20.3513116,13.6316853 C20.4710331,13.548202 20.5613805,13.4855896 20.6187934,13.4464569 C21.0064417,13.1816584 21.6130601,12.7703294 22.4288571,12.216818 C23.9100207,11.2111057 26.0934907,9.73014746 28.9863883,7.76829096 C29.857373,7.17390757 30.5841579,6.45734294 31.1680781,5.61990152 C31.7524434,4.78072088 32.0444035,3.90110302 32.0444035,2.98191757 C32.0444035,2.21274111 31.7608996,1.55531047 31.1943367,1.00701679 C30.629109,0.46002753 29.9579568,0.186532902 29.1826602,0.186532902 L29.1826602,0.186532902 L29.1826602,0.186532902 Z" id="Fill-4"></path>
                    </g>
                </g>
            </g>
        </g>
    </g>
</svg>