<?xml version="1.0" encoding="utf-8"?>
<!-- Generator: Adobe Illustrator 16.0.4, SVG Export Plug-In . SVG Version: 6.00 Build 0)  -->
<!DOCTYPE svg PUBLIC "-//W3C//DTD SVG 1.1//EN" "http://www.w3.org/Graphics/SVG/1.1/DTD/svg11.dtd">
<svg version="1.1" id="Layer_1" xmlns="http://www.w3.org/2000/svg" xmlns:xlink="http://www.w3.org/1999/xlink" x="0px" y="0px"
	 width="350px" height="450px" viewBox="0 0 350 450" enable-background="new 0 0 350 450" xml:space="preserve">
<g id="Layer_1_1_">
	<rect x="-14" y="-6" fill="#EEEEEE" width="368" height="470.5"/>
</g>
<g id="Layer_2">
	<g id="XMLID_3_">
		<g>
			<path fill="#EACB86" d="M226.605,148.743c-2.562,0-5.041,0.15-7.53,0.66c5.69-1.22,11.11-1.52,15.659,2.02
				C232.105,150.323,229.466,148.743,226.605,148.743z"/>
			<path fill="#AAC8DC" d="M221.404,170.433c0.021,0.07,0.031,0.14,0.041,0.21c-5.58-1.31-11.33-0.97-16.721,0.96
				c-0.011-0.08-0.011-0.16-0.011-0.24c0.397-0.16,0.812-0.3,1.21-0.44c4.182-1.39,8.58-1.75,12.899-1.05
				c0.288,0.05,0.579,0.1,0.868,0.16c0.132,0.02,0.271,0.05,0.4,0.08c0.229,0.05,0.461,0.1,0.689,0.16
				C220.995,170.323,221.195,170.373,221.404,170.433z"/>
			<path fill="#FFFFFF" d="M219.045,178.623c2.102-2.35,2.99-5.08,2.4-7.98c2.72,0.64,5.4,1.67,7.979,3.11
				c0.659,0.37,1.33,0.77,1.989,1.2c-5.312,2.61-11.08,4.11-16.979,4.51C215.995,179.303,217.545,179.013,219.045,178.623z"/>
			<path fill="#AAC8DC" d="M207.466,179.423c-0.28-0.27-0.562-0.54-0.841-0.8c-1.141-2.18-1.811-4.59-1.898-7.02
				c5.391-1.93,11.141-2.27,16.719-0.96c0.592,2.9-0.299,5.63-2.398,7.98c-1.5,0.39-3.05,0.68-4.607,0.84
				c-2.211,0.15-4.432,0.14-6.66-0.01C207.676,179.443,207.564,179.433,207.466,179.423z"/>
			<path fill="#E1BFA9" d="M190.295,176.953c11.391-13.97,31.689-19.21,45.5-5.03c0,0.45,0,0.91,0,1.36
				c-1.46,0.55-2.92,1.11-4.38,1.67c-0.659-0.43-1.33-0.83-1.989-1.2c-2.67-1.51-5.351-2.62-8.021-3.32v-0.01
				c-0.209-0.05-0.408-0.11-0.618-0.15c-0.229-0.06-0.46-0.11-0.688-0.16c-0.131-0.03-0.262-0.06-0.4-0.08
				c-0.289-0.06-0.579-0.11-0.869-0.16c-4.34-0.73-8.66-0.38-12.898,1.05c-0.4,0.14-0.812,0.28-1.211,0.44
				c-2.801,1.09-5.551,2.65-8.261,4.69c-0.39,0.29-0.771,0.59-1.16,0.9C193.625,176.953,191.966,176.953,190.295,176.953z"/>
			<path fill="#AAC8DC" d="M205.926,170.923c4.239-1.43,8.561-1.78,12.899-1.05C214.506,169.173,210.105,169.533,205.926,170.923z"
				/>
			<path fill="#AAC8DC" d="M207.775,179.453c2.229,0.15,4.449,0.16,6.66,0.01C212.227,179.693,209.984,179.693,207.775,179.453z"/>
			<path fill="#EACB86" d="M199.795,152.953c4.7-0.16,9.189-1.07,13.689-2.17C208.865,152.003,204.205,153.213,199.795,152.953z"/>
			<path fill="#FFFFFF" d="M206.625,178.623c0.279,0.26,0.561,0.53,0.841,0.8c0.101,0.01,0.21,0.02,0.31,0.03
				c-4.188-0.3-8.389-1.13-12.479-2.5c0.393-0.31,0.771-0.61,1.16-0.9c2.602-1.93,5.38-3.42,8.271-4.45
				C204.814,174.033,205.484,176.443,206.625,178.623z"/>
			<path fill="#DCBE82" d="M199.795,152.953c4.41,0.26,9.07-0.95,13.689-2.17c0.291-0.07,0.58-0.14,0.881-0.22
				c1.21-0.29,2.42-0.6,3.641-0.91c0.359-0.09,0.71-0.17,1.069-0.25c2.489-0.51,4.97-0.66,7.53-0.66c2.858,0,5.5,1.58,8.129,2.68
				c-2.5,1.1-7.271-0.64-10.069-0.64c-3.739,0-6.8,0.6-10.431,1.46c-7,1.66-13.75,3.63-20.609,5.71c0-2,0-4,0-6
				c1.561-1.09,3-1.58,4.82-2.14h0.01C198.896,150.863,199.346,151.903,199.795,152.953z"/>
			<path fill="#DFB0A9" d="M141.295,247.703c14.591,7.99,39.131,7.26,54,0c-18.238,0-36.51,0.32-54.619-1
				C140.875,247.033,141.085,247.373,141.295,247.703z M208.676,246.573c-24.561,18.46-59.431,20.28-81-3.171
				c12.56-7.439,27.38-7.811,40.31-0.949C180.564,237.973,195.865,239.623,208.676,246.573z"/>
			<path fill="#FFFFFF" d="M195.295,247.703c-14.869,7.26-39.409,7.99-54,0c-0.21-0.33-0.42-0.67-0.619-1
				C158.785,248.023,177.057,247.703,195.295,247.703z"/>
			<path fill="#AAC8DC" d="M134.676,169.443c-0.021,0.09-0.051,0.19-0.08,0.28c-1.71-0.92-3.5-1.65-5.33-2.18
				c-0.01-0.12-0.03-0.25-0.04-0.38C131.096,167.713,132.915,168.473,134.676,169.443z"/>
			<path fill="#FFFFFF" d="M131.415,177.453c1.391-2.44,2.471-5.06,3.181-7.73c3.16,1.68,6.06,3.99,8.529,6.9
				c-3.909,0.86-7.869,1.29-11.83,1.29c-1.68,0-3.369-0.08-5.039-0.24C128.045,177.763,129.795,177.693,131.415,177.453z"/>
			<path fill="#AAC8DC" d="M129.216,167.113c1.869,0.55,3.699,1.33,5.46,2.33c-1.761-0.97-3.58-1.73-5.45-2.28
				C129.216,167.143,129.216,167.133,129.216,167.113z"/>
			<path fill="#231F20" d="M129.266,167.543c0.609,7.14-8.891,5.3-5.38-1c0.01,0,0.029,0,0.04,0c-0.19,0.61,0.569,0.39,0.739,0.08
				C126.226,166.793,127.766,167.103,129.266,167.543z"/>
			<path d="M129.226,167.163c0.01,0.13,0.03,0.26,0.04,0.38c-1.5-0.44-3.04-0.75-4.601-0.92c0.07-0.12,0.051-0.26-0.149-0.36
				c0.22,0.02,0.439,0.04,0.66,0.07c0.02,0.01,0.05,0.01,0.069,0.01c1.12,0.22,2.23,0.43,3.351,0.65
				C128.806,167.053,129.016,167.113,129.226,167.163z"/>
			<path d="M129.226,167.163c-0.21-0.05-0.42-0.11-0.63-0.17c0.21,0.04,0.41,0.08,0.62,0.12
				C129.216,167.133,129.216,167.143,129.226,167.163z"/>
			<path d="M129.216,167.113c-0.21-0.04-0.41-0.08-0.62-0.12c-1.101-0.29-2.221-0.51-3.351-0.65c-0.02,0-0.05,0-0.069-0.01
				c-0.271-0.05-0.551-0.1-0.82-0.16C125.995,166.323,127.615,166.633,129.216,167.113z"/>
			<path fill="#AAC8DC" d="M120.085,176.743c-1.729-3.14-2.51-6.45-2.31-10c2.03-0.3,4.08-0.37,6.11-0.2
				c-3.511,6.3,5.989,8.14,5.38,1c1.83,0.53,3.62,1.26,5.33,2.18c-0.71,2.67-1.79,5.29-3.181,7.73c-1.62,0.24-3.37,0.31-5.159,0.22
				c-2.061-0.19-4.11-0.5-6.141-0.92C120.105,176.753,120.096,176.743,120.085,176.743z"/>
			<path d="M128.596,166.993c-1.12-0.22-2.23-0.43-3.351-0.65C126.375,166.483,127.495,166.703,128.596,166.993z"/>
			<path d="M125.176,166.333c-0.221-0.03-0.44-0.05-0.66-0.07c-0.05-0.03-0.12-0.06-0.2-0.09c0.01,0,0.03,0,0.04,0
				C124.625,166.233,124.905,166.283,125.176,166.333z"/>
			<path d="M124.516,166.263c0.2,0.1,0.22,0.24,0.149,0.36c-0.239-0.03-0.489-0.05-0.739-0.08c0.02-0.06,0.05-0.14,0.09-0.22
				c0.02-0.03,0.04-0.06,0.06-0.1C124.226,166.233,124.365,166.243,124.516,166.263z"/>
			<path d="M123.926,166.543c0.25,0.03,0.5,0.05,0.739,0.08C124.495,166.933,123.735,167.153,123.926,166.543z"/>
			<path fill="#E1BFA9" d="M100.915,170.333c11.771-18.34,37.271-8.82,45,7.38c-0.949,0.07-1.88-0.06-2.79-0.38
				c0-0.24,0-0.48,0-0.71c-2.529-3.04-5.38-5.45-8.449-7.18c-1.761-1-3.591-1.78-5.46-2.33c-1.601-0.48-3.221-0.79-4.86-0.94
				c-0.01,0-0.03,0-0.04,0c0,0,0,0-0.01,0c-0.011-0.01-0.021-0.01-0.03-0.01c-0.05-0.01-0.1-0.02-0.15-0.03
				c-0.01,0.01-0.01,0.02-0.01,0.03c-2.09-0.16-4.2-0.07-6.32,0.3c-3.39,0.59-6.779,1.88-10.05,3.88c-0.66,0.39-1.31,0.82-1.95,1.28
				C104.105,171.413,102.485,170.983,100.915,170.333z"/>
			<path d="M124.516,166.263c-0.15-0.02-0.29-0.03-0.44-0.04c0.01-0.02,0.021-0.04,0.04-0.06c0.061,0,0.13,0.01,0.19,0.01
				c0.01,0,0.01,0,0.01,0C124.396,166.203,124.466,166.233,124.516,166.263z"/>
			<path fill="#FDE2CB" d="M115.795,129.953c4.94,2.75,8.891,6.93,11.54,11.89c-8.329-1.43-17.26-0.72-25.75-0.72
				C106.745,137.333,111.896,133.633,115.795,129.953z"/>
			<path fill="#FDE2CB" d="M235.795,171.923c-13.811-14.18-34.109-8.94-45.5,5.03c1.671,0,3.33,0,5,0c4.092,1.37,8.29,2.2,12.48,2.5
				c2.209,0.24,4.449,0.24,6.66,0.01c5.897-0.4,11.67-1.9,16.979-4.51c1.46-0.56,2.92-1.12,4.38-1.67
				C235.795,172.833,235.795,172.373,235.795,171.923z M127.676,243.402c21.569,23.451,56.439,21.631,81,3.171
				c-12.811-6.95-28.109-8.601-40.69-4.12C155.056,235.593,140.235,235.963,127.676,243.402z M131.295,177.913
				c3.961,0,7.921-0.43,11.83-1.29c0,0.23,0,0.47,0,0.71c0.91,0.32,1.841,0.45,2.79,0.38c-7.729-16.2-33.229-25.72-45-7.38
				c1.57,0.65,3.19,1.08,4.88,1.29c4.551,2.38,9.36,4.09,14.29,5.12c0.011,0,0.021,0.01,0.03,0.01c1.96,0.51,4.07,0.82,6.141,0.92
				C127.926,177.833,129.615,177.913,131.295,177.913z M123.835,148.283c7.801,2.72,15.101,8.27,23.631,7.67c0-1.33,0-2.67,0-4
				c-4.851-3.73-10.21-6.18-15.79-8.76c8.149-5.26,17.47-13.24,26.5-13.24c5.1,0,13,7.9,17.29,10.88
				c4.921,3.42,13.899,1.62,19.829,1.62c1.051,2.45,2.102,4.91,3.15,7.36c-1.82,0.56-3.26,1.05-4.82,2.14c0,2,0,4,0,6
				c6.859-2.08,13.609-4.05,20.609-5.71c3.631-0.86,6.689-1.46,10.431-1.46c2.801,0,7.569,1.74,10.069,0.64h0.011
				c0.88,0.69,1.729,1.53,2.55,2.53c3.33-0.83,6.671-1.67,10-2.5c19,23.75,14.45,46.65,10.33,74.83c-0.42,2.88-0.83,5.81-1.221,8.81
				c-4.17,32.341-30.521,51.53-60.359,63.74c-25.18,10.29-66.38,7.28-87.819-12.819c-2.16-2.031-4.2-4.101-6.11-6.211
				c-19.229-21.189-26.32-46.619-26.32-75.85c0-17.47-2.34-31.5,7.5-46.25c2.61-3.92,6.7-7.66,11.271-11.27
				C105.545,145.103,113.365,144.633,123.835,148.283z"/>
			<path d="M124.306,166.173c-0.061,0-0.13-0.01-0.19-0.01c0-0.01,0-0.02,0.01-0.03c0.051,0.01,0.101,0.02,0.15,0.03
				C124.285,166.163,124.295,166.163,124.306,166.173z"/>
			<path fill="#AAC8DC" d="M124.115,166.163c-0.02,0.02-0.03,0.04-0.04,0.06c-2.069-0.17-4.17-0.09-6.28,0.24
				C119.915,166.093,122.025,166.003,124.115,166.163z"/>
			<path d="M123.886,166.543c0.04-0.08,0.08-0.15,0.13-0.22c-0.04,0.08-0.07,0.16-0.09,0.22
				C123.915,166.543,123.896,166.543,123.886,166.543z"/>
			<path fill="#FFFFFF" d="M117.775,166.743c-0.2,3.55,0.58,6.86,2.31,10c-4.93-1.03-9.739-2.74-14.29-5.12
				c0.641-0.46,1.29-0.89,1.95-1.28C110.926,168.433,114.325,167.243,117.775,166.743z"/>
			<path fill="#AAC8DC" d="M117.795,166.463c2.11-0.33,4.211-0.41,6.28-0.24c-0.02,0.04-0.04,0.07-0.06,0.1
				c-0.05,0.07-0.09,0.14-0.13,0.22c-2.03-0.17-4.08-0.1-6.11,0.2C117.785,166.653,117.785,166.553,117.795,166.463z"/>
			<path fill="#DCBE82" d="M147.466,155.953c-8.53,0.6-15.83-4.95-23.631-7.67c-10.47-3.65-18.29-3.18-29.27-1.85
				c0.12-0.1,0.24-0.2,0.37-0.3c0.08-0.06,0.17-0.12,0.25-0.19c1.899-1.43,3.8-2.86,5.7-4.3c0.229-0.17,0.47-0.34,0.699-0.52
				c8.49,0,17.421-0.71,25.75,0.72c0.49,1.04,0.971,2.07,1.46,3.11c0.94-0.53,1.9-1.13,2.881-1.76c5.58,2.58,10.939,5.03,15.79,8.76
				C147.466,153.283,147.466,154.623,147.466,155.953z"/>
			<path fill="#EACB86" d="M217.125,383.453c-18.898-15.15,14.841-54.94,19.17-70.08c3.54-12.391-4.09-25.28,5.171-36.09
				c11.771-13.73,20.399-32.84,16.171-51h-0.012c4.12-28.18,8.67-51.08-10.33-74.83c-3.329,0.83-6.67,1.67-10,2.5
				c-0.818-1-1.67-1.84-2.55-2.53h-0.011c-4.549-3.54-9.969-3.24-15.659-2.02c-0.359,0.08-0.71,0.16-1.069,0.25
				c-1.199,0.27-2.421,0.59-3.641,0.91c-0.301,0.08-0.59,0.15-0.881,0.22c-4.5,1.1-8.989,2.01-13.689,2.17
				c-0.449-1.05-0.898-2.09-1.34-3.14h-0.01c-1.051-2.45-2.1-4.91-3.15-7.36c-5.93,0-14.908,1.8-19.829-1.62
				c-4.29-2.98-12.19-10.88-17.29-10.88c-9.03,0-18.351,7.98-26.5,13.24c-0.96,0.59-1.92,1.17-2.881,1.76
				c-0.43-1.07-0.909-2.1-1.46-3.11c-2.649-4.96-6.6-9.14-11.54-11.89c-3.899,3.68-9.05,7.38-14.21,11.17
				c-0.229,0.18-0.47,0.35-0.699,0.52c-1.94,1.41-3.86,2.85-5.7,4.3c-0.08,0.07-0.17,0.13-0.25,0.19c-0.13,0.1-0.26,0.2-0.391,0.3
				c0.011,0,0.011,0,0.021,0c-4.57,3.61-8.66,7.35-11.271,11.27c-9.84,14.75-7.5,28.78-7.5,46.25c0,29.23,7.091,54.66,26.32,75.85
				c-6.8,23.41,25.4,46.08,18.34,60.98c-1.859-5.25-5.37-9.19-10.33-11.33c6.08,11.07,9.141,33.07-2.659,40.67
				c3.31-9.93,3.76-21.4-3.671-29.34c0,12.71-2.449,28.3,1.171,40.5c3.029,10.25,21.43,31.07-0.171,35.5
				c13.87-10.16-5.159-27.79-7.67-40.33c-2.899-14.521,5.771-30.5-7-41.67c-8.909,24.27-13.77,56.53-44,62.67
				c3.95-6.29,9.15-13.65,9-21.67c-4.33,4.16-9.659,5.59-15.33,4c10.57-9.12,27.24-17.142,26.33-33
				c-7.04,4.75-14.859,5.76-19.33-0.66c24.351,5.61,32.11-21.01,23.671-38.67c-7.33,6.62-7.851,16.87-7,25.67
				c-12.631-11.03,2.17-22.39-3.341-34c-0.899,3.59-2.89,6.38-6,8.33c-3.359-21.48-11.569-45.12-16.52-66.88
				c-2.78-12.22-9.1-27.37-9.061-39.62c0.051-14.21,8.671-21.65,11.75-34.85c2.75-11.82-3.01-26.39,1.061-37.71
				c4.07-11.31,9.92-23.17,15.32-33.69c16.819-32.79,35.359-64.58,70.119-79.75c68.421-29.85,155.722,25.3,166.75,96.75
				c5.132,33.25,20.82,61.94,19.33,96.33c-0.699,16.42-7.649,32.22-9.909,48.5c-2.29,16.439,0.479,33.359-1.511,49.75
				c-1.33-2.27-3.199-4.08-5.5-5.33c2.04,17.23,21.28,29.69,19.17,47.5c-4.34-9.97-10.358-24.48-21.33-25.67
				c1.41,2.609,2.562,5.229,3.5,8c-4-0.62-6.8-3.18-8-7.16c-7.789,23.48,8.521,40.67,31.16,45.66
				c-7.938,2.53-16.101,0.79-23.33-3.33c3.631,19.53,5.229,43.19-11.5,57c2.392-4.5,4.28-9.16,5.67-14
				c-4.989,6.67-11.149,11.69-19,14c31.5-22.68,0.302-41.64-14.17-61.83c1.802,22-5.56,34.57-10,54.33
				c-1.29-19.94,11.07-38.58,3.341-60.33c2.159,30.96-27.4,70.312,16.159,85.66c-39-1.67-23.869-46.22-24-69.66
				c-3.101,8.49-3.25,17.271-5.5,26c-0.399-6.04-0.63-12.27-0.659-18.34c-1.051,6.46-1.841,13.06-2.341,19.5
				c-2.68-5.021-3.351-10.95-2-16.66c-1.09,1.62-1.76,3.4-2,5.33c-2.64-2.87-3.698-6.64-3.159-10.67
				c-1.761,4.04-2.671,8.52-2.671,13c-4.09-6.58-5.38-14.45-6.01-22.16C215.415,371.963,214.676,377.713,217.125,383.453z"/>
		</g>
	</g>
	<path fill="#231F20" d="M214.922,169.89c3.381,7.217-7.18,7.959-5.172,0.35C211.477,170.12,213.193,170.009,214.922,169.89
		C215.727,171.621,213.193,170.009,214.922,169.89z"/>
	<polyline points="214.922,169.89 214.754,169.527 212.545,169.599 211.955,169.648 211.033,169.751 210.549,169.82 
		209.832,169.936 209.75,170.24 	"/>
	<polyline fill="none" stroke="#E0BEA9" stroke-width="0.5" stroke-miterlimit="10" points="105.795,171.623 108.61,172.994 
		112.648,174.634 115.883,175.691 119.152,176.541 122.201,177.21 125.629,177.636 128.877,177.857 132.566,177.898 
		136.326,177.681 139.343,177.318 141.103,177.029 143.125,176.623 	"/>
	<polyline fill="none" stroke="#E0BEA9" stroke-width="0.5" stroke-miterlimit="10" points="195.295,176.953 198.294,177.855 
		200.691,178.435 202.816,178.847 204.521,179.111 206.877,179.376 208.752,179.548 211.41,179.638 214.455,179.462 
		216.551,179.267 218.648,178.982 221.691,178.392 225.494,177.347 228.84,176.117 230.288,175.488 231.416,174.953 	"/>
	<path fill="#494043" d="M176.088,225.953c3.111-2.852,7.756-3.111,12.333-1.111C184.48,226.662,180.264,227.048,176.088,225.953z"
		/>
	<path fill="#231F20" d="M158.254,225.173c-3.266-2.867-7.483-3.346-11.5-1.445C150.256,225.275,154.266,225.755,158.254,225.173z"
		/>
	<path fill="#E6CCB9" d="M143.125,212.453c2.666-2.303,4.899-4,8.119-5.438c2.883-1.287,4.756-4.803,6.061-7.559
		c2.187-4.615,0.949-11.631,0.949-16.754c-3.347,5.299-0.41,12.289-4.125,17.5C150.674,205.05,145.274,206.291,143.125,212.453z"/>
	<path fill="#E6CCB9" d="M193.625,214.119c-3.621-5.98-10.648-9.732-12.621-16.25c-1.268-4.188-0.584-9.223-0.584-13.582
		c3.542,3.869,2.164,11.213,5.469,16.125C188.59,204.427,194.516,208.847,193.625,214.119z"/>
</g>
</svg>
