<?xml version="1.0" encoding="UTF-8" standalone="no"?>
<svg width="50px" height="51px" viewBox="0 0 50 51" version="1.1" xmlns="http://www.w3.org/2000/svg" xmlns:xlink="http://www.w3.org/1999/xlink" xmlns:sketch="http://www.bohemiancoding.com/sketch/ns">
    <!-- Generator: Sketch 3.5.1 (25234) - http://www.bohemiancoding.com/sketch -->
    <title>Group</title>
    <desc>Created with Sketch.</desc>
    <defs></defs>
    <g id="Page-1" stroke="none" stroke-width="1" fill="none" fill-rule="evenodd" sketch:type="MSPage">
        <g id="Group" sketch:type="MSLayerGroup">
            <g id="Page-1" sketch:type="MSShapeGroup">
                <ellipse id="Oval-1" fill="#FFFFFF" cx="24.5" cy="26.5" rx="23.5" ry="24.5"></ellipse>
                <path d="M24.6154419,0 C11.0231479,0 0,11.3890245 0,25.4390799 C0,36.6781872 7.0530616,46.211986 16.8354631,49.5757538 C18.0671419,49.8099995 18.5159869,49.0244957 18.5159869,48.3498682 C18.5159869,47.747076 18.4948292,46.1463972 18.4827391,44.0241314 C11.6352092,45.560783 10.1904423,40.6135144 10.1904423,40.6135144 C9.07059685,37.6745121 7.45656865,36.8921316 7.45656865,36.8921316 C5.22141157,35.3148774 7.62583004,35.3461102 7.62583004,35.3461102 C10.096744,35.5256985 11.3964297,37.9681 11.3964297,37.9681 C13.592294,41.8550165 17.1588732,40.7321989 18.5613248,40.080996 C18.7849915,38.438153 19.4212331,37.3168971 20.1239701,36.6813104 C14.657734,36.0394773 8.91040306,33.8563077 8.91040306,24.1085645 C8.91040306,21.3319724 9.87005468,19.0597894 11.4447901,17.2826456 C11.1908981,16.6392508 10.3461023,14.051617 11.6865921,10.550425 C11.6865921,10.550425 13.7524878,9.86642767 18.4555364,13.1583602 C20.4186662,12.5930472 22.525366,12.3119525 24.6184644,12.301021 C26.7100515,12.3119525 28.8152401,12.5930472 30.7813924,13.1583602 C35.4814185,9.86642767 37.5442917,10.550425 37.5442917,10.550425 C38.887804,14.051617 38.0430082,16.6392508 37.7906274,17.2826456 C39.3683854,19.0597894 40.3204806,21.3319724 40.3204806,24.1085645 C40.3204806,33.8812938 34.5640823,36.0316692 29.0812223,36.6610092 C29.9637995,37.446513 30.7511672,38.998781 30.7511672,41.3724704 C30.7511672,44.7721559 30.7209419,47.5159536 30.7209419,48.3498682 C30.7209419,49.0307422 31.1652531,49.8224926 32.4135558,49.5741922 C42.188401,46.2026162 49.2354176,36.6750639 49.2354176,25.4390799 C49.2354176,11.3890245 38.2122697,0 24.6154419,0" id="Fill-3" fill="#E67E22"></path>
            </g>
        </g>
    </g>
</svg>