<?xml version="1.0" encoding="utf-8"?>
<!-- Generator: Adobe Illustrator 16.0.4, SVG Export Plug-In . SVG Version: 6.00 Build 0)  -->
<!DOCTYPE svg PUBLIC "-//W3C//DTD SVG 1.1//EN" "http://www.w3.org/Graphics/SVG/1.1/DTD/svg11.dtd">
<svg version="1.1" xmlns="http://www.w3.org/2000/svg" xmlns:xlink="http://www.w3.org/1999/xlink" x="0px" y="0px" width="300px"
	 height="100px" viewBox="0 0 300 100" enable-background="new 0 0 300 100" xml:space="preserve">
<g id="Layer_1">
	<g id="Layer_1_1_">
		<rect fill="#EEEEEE" width="300" height="100"/>
	</g>
	<g id="Layer_2" display="none">
		<g display="inline" enable-background="new    ">
			<path fill="#D35400" d="M38.078,73.759c-0.144-0.792-0.216-1.584-0.216-2.448c0-3.312,1.512-6.625,3.096-10.729
				c3.096-8.064,9.505-19.585,14.977-28.946c1.224-2.088,1.656-6.12,4.465-6.12c1.008,0,1.584-0.145,2.376-0.145
				c0.72,0,1.512,0.288,1.872,0.792c0.432,0.648,0.576,1.296,0.576,2.017c0,0.936-0.288,1.8-0.72,2.521
				c-6.552,10.584-14.113,20.232-18.361,31.466c-1.152,2.953-2.736,5.688-2.736,8.856c0,0.865,0.072,1.729,0.36,2.664
				c0.216,0.648,0.792,0.864,1.44,0.864c0.432,0,0.864-0.071,1.224-0.288C49.599,72.32,53.127,66.2,56.44,66.2
				c0.576,0,2.448,0.504,2.448,1.655c0,0.937-0.72,1.225-1.44,2.017c-3.672,3.96-6.625,9.433-12.169,9.433
				C44.775,79.303,38.798,77.719,38.078,73.759z"/>
			<path fill="#D35400" d="M68.895,75.559c-1.512,1.368-4.176,3.457-7.417,3.457c-2.16,0-4.608-3.024-5.4-5.688
				c-0.288-1.009-0.36-2.017-0.36-3.024c0-1.8,0.288-3.384,1.152-5.832c0.504-1.367,0.792-2.592,1.224-3.601
				c2.232-5.256,4.32-10.44,6.984-15.985c0.72-1.512,2.232-1.944,3.601-1.944c0.72,0,1.656,0.145,2.16,0.576
				c0.36,0.288,0.576,0.504,0.576,1.152c0,3.816-2.952,5.616-4.608,9.146c-1.224,2.664-3.24,7.561-4.248,10.226
				c-1.224,3.239-1.728,5.976-1.728,7.058c0,0.646,0.072,2.303,1.296,2.303c1.584,0,2.376-0.432,5.256-2.447
				c1.729-1.225,2.232-1.584,3.384-1.584c0.576,0,1.368,0.145,1.8,0.504S73,70.59,73,70.878c0,0.792-0.432,1.226-1.152,1.944
				L68.895,75.559z M78.904,30.627c0,0.432-0.072,0.936-0.36,1.296c-1.296,1.584-3.024,3.528-4.608,3.528
				c-1.44,0-2.521-0.792-2.88-1.44c-0.36-0.72-0.504-1.656-0.504-2.448c0-1.008,0.288-2.231,0.936-3.024
				c0.72-0.863,2.016-1.224,3.528-1.224c1.152,0,2.52,0.36,3.024,0.937C78.76,29.043,78.904,29.906,78.904,30.627z"/>
			<path fill="#D35400" d="M86.894,47.548c-0.72,1.513-1.656,4.249-1.656,4.466c0,0.144,0.144,0.215,0.288,0.215
				c0.216,0,1.08-0.144,1.8-0.287c3.168-0.647,7.272-2.16,9.649-3.602c0.36-0.216,0.648-0.359,0.792-0.359
				c1.224,0,3.528,1.008,3.528,1.872c0,0.936-0.792,2.088-2.376,2.736c-1.944,0.792-1.944,1.009-3.24,1.513
				c-3.528,1.367-9.648,2.735-11.161,3.239c-0.648,0.216-1.08,0.576-1.368,1.08c-0.576,1.009-0.936,2.376-1.224,3.457
				c-0.216,0.792-0.648,1.513-0.792,2.304c-0.432,2.377-2.88,8.498-3.312,12.098c-0.072,0.647-0.792,2.521-1.8,3.023
				c-0.288,0.146-0.792,0.217-1.08,0.217c-0.864,0-2.016-0.359-2.592-0.793c-0.576-0.432-0.792-1.08-0.792-1.728
				c0-0.576,0.072-1.513,0.288-2.16c1.8-5.329,3.096-11.594,5.4-17.138c0.072-0.217,0.144-0.36,0.144-0.504
				c0-0.146-0.072-0.288-0.36-0.434c-2.592-1.296-3.024-3.168-4.681-4.535c-0.36-0.289-0.36-0.648-0.36-0.864
				c0-0.505,0.288-0.647,0.864-0.936c0.432-0.216,0.792-0.36,1.44-0.36c1.584,0,3.384,1.153,4.681,1.153
				c0.648,0,1.08-0.361,1.224-1.009c0.216-0.793,0.576-1.873,1.152-3.385c1.728-4.393,3.672-10.009,6.121-15.266
				c0.432-0.936,0.504-0.936,0.792-0.936c1.152,0,1.296-0.36,2.016-0.36c0.648,0,1.872,0.216,2.736,0.576
				c0.36,0.144,0.648,0.288,0.648,0.504c0,0.145,0,0.36-0.072,0.792C92.655,37.755,89.198,42.651,86.894,47.548z"/>
			<path fill="#D35400" d="M103.238,47.548c-0.72,1.513-1.656,4.249-1.656,4.466c0,0.144,0.144,0.215,0.288,0.215
				c0.216,0,1.08-0.144,1.8-0.287c3.168-0.647,7.272-2.16,9.649-3.602c0.36-0.216,0.648-0.359,0.792-0.359
				c1.224,0,3.528,1.008,3.528,1.872c0,0.936-0.792,2.088-2.376,2.736c-1.944,0.792-1.944,1.009-3.24,1.513
				c-3.528,1.367-9.648,2.735-11.161,3.239c-0.648,0.216-1.08,0.576-1.368,1.08c-0.576,1.009-0.936,2.376-1.224,3.457
				c-0.216,0.792-0.648,1.513-0.792,2.304c-0.432,2.377-2.88,8.498-3.312,12.098c-0.072,0.647-0.792,2.521-1.8,3.023
				c-0.288,0.146-0.792,0.217-1.08,0.217c-0.864,0-2.016-0.359-2.592-0.793c-0.576-0.432-0.792-1.08-0.792-1.728
				c0-0.576,0.072-1.513,0.288-2.16c1.8-5.329,3.096-11.594,5.4-17.138c0.072-0.217,0.144-0.36,0.144-0.504
				c0-0.146-0.072-0.288-0.36-0.434c-2.592-1.296-3.024-3.168-4.681-4.535c-0.36-0.289-0.36-0.648-0.36-0.864
				c0-0.505,0.288-0.647,0.864-0.936c0.432-0.216,0.792-0.36,1.44-0.36c1.584,0,3.384,1.153,4.681,1.153
				c0.648,0,1.08-0.361,1.224-1.009c0.216-0.793,0.576-1.873,1.152-3.385c1.728-4.393,3.672-10.009,6.121-15.266
				c0.432-0.936,0.504-0.936,0.792-0.936c1.152,0,1.296-0.36,2.016-0.36c0.648,0,1.872,0.216,2.736,0.576
				c0.36,0.144,0.648,0.288,0.648,0.504c0,0.145,0,0.36-0.072,0.792C108.999,37.755,105.542,42.651,103.238,47.548z"/>
			<path fill="#D35400" d="M105.109,73.759c-0.144-0.792-0.216-1.584-0.216-2.448c0-3.312,1.512-6.625,3.096-10.729
				c3.096-8.064,9.505-19.585,14.977-28.946c1.224-2.088,1.656-6.12,4.465-6.12c1.008,0,1.584-0.145,2.376-0.145
				c0.72,0,1.512,0.288,1.872,0.792c0.432,0.648,0.576,1.296,0.576,2.017c0,0.936-0.288,1.8-0.72,2.521
				c-6.552,10.584-14.113,20.232-18.361,31.466c-1.152,2.953-2.736,5.688-2.736,8.856c0,0.865,0.072,1.729,0.36,2.664
				c0.216,0.648,0.792,0.864,1.44,0.864c0.432,0,0.864-0.071,1.224-0.288c3.168-1.943,6.696-8.063,10.009-8.063
				c0.576,0,2.448,0.504,2.448,1.655c0,0.937-0.72,1.225-1.44,2.017c-3.672,3.96-6.625,9.433-12.169,9.433
				C111.806,79.303,105.829,77.719,105.109,73.759z"/>
			<path fill="#D35400" d="M134.486,78.943c-0.864,0-1.584-0.072-2.736-0.506c-1.584-0.574-4.104-1.728-4.608-2.016
				c-1.44-0.792-2.808-2.593-3.601-4.969c-0.504-1.439-0.864-4.176-0.864-5.544c0-0.648,0.072-1.368,0.36-2.377
				c2.016-7.345,6.913-13.681,12.385-19.514c1.224-1.296,4.176-3.24,7.705-3.24c1.944,0,2.952,0.288,4.393,0.792
				c0.792,0.288,2.304,1.585,2.304,4.465c0,1.872-0.792,3.456-1.656,5.186c-0.72,1.439-1.296,2.231-2.304,3.383
				c-4.969,5.617-10.585,11.881-16.706,15.267c-0.36,0.216-0.432,0.36-0.432,0.575c0,1.152,1.08,2.664,1.728,3.024
				c0.792,0.433,1.512,0.576,2.232,0.576c1.224,0,2.304-0.288,5.544-2.017c4.968-2.664,7.993-6.553,12.313-9.289
				c0.792-0.504,1.152-0.504,1.439-0.504c0.433,0,1.44,0.721,1.44,1.439c0,0.647-0.071,0.721-0.071,0.936c0,0.289,0,0.722-0.36,1.01
				c-3.456,2.952-4.968,6.553-15.913,12.602C135.782,78.943,135.422,78.943,134.486,78.943z M143.774,46.036
				c0-0.576,0-0.864-0.432-0.864c-0.432,0-0.864,0.216-1.512,0.648c-0.792,0.504-0.72,0.288-1.44,0.936
				c-4.68,4.178-9.721,10.081-11.305,16.489c0,0.288,0.072,0.36,0.144,0.36c0.144,0,0.288-0.072,0.504-0.217
				c4.248-3.24,7.776-7.201,11.017-11.089c1.081-1.296,0.792-1.513,1.729-2.952C143.198,48.269,143.774,47.332,143.774,46.036z"/>
			<path fill="#D35400" d="M191.365,48.845c2.881,0,4.537-0.217,6.193-0.217c2.303,0,4.465,0.721,4.465,1.872
				c0,0.938-1.801,1.152-2.019,1.514c-0.144,0.287-0.287,0.359-0.791,0.432c-1.44,0.217-3.528,0.937-5.399,1.225
				c-1.44,0.216-2.306,0.216-2.81,0.216c-0.575,0-0.721,0.072-0.864,0.576c-1.871,7.704-4.464,14.401-9.072,19.298
				c-2.017,2.16-3.961,4.248-6.48,4.248c-0.646,0-1.296-0.144-1.729-0.359c-2.735-1.297-4.752-2.881-5.399-4.537
				c-0.792-2.016-1.08-4.176-1.08-5.977c0-5.904,2.952-11.089,6.265-16.058c1.008-1.512,1.008-1.151,1.729-2.16
				c2.304-3.24,5.328-6.624,8.496-6.624c1.151,0,2.592,0.288,3.815,1.368c0.576,0.504,0.793,0.647,1.008,1.224
				C188.342,46.685,189.277,48.845,191.365,48.845z M183.445,48.557c-0.217-0.721-0.432-1.225-0.721-1.225
				c-0.287,0-0.721,0.288-1.08,0.72c-0.287,0.36-1.008,0.721-1.367,1.225c-2.232,2.809-9.002,11.737-9.002,20.163
				c0,0.216,0,0.504,0.217,1.008c0.216,0.576,1.08,1.943,1.729,2.376c0.215,0.145,0.432,0.145,0.647,0.145
				c0.72,0,1.08-0.433,1.368-0.575c0.504-0.217,0.647-0.434,1.225-1.297c4.176-6.265,8.064-11.882,8.064-19.154
				c0-0.287,0-1.151-0.072-1.511c-0.072-0.504-0.217-0.576-0.432-0.792C183.661,49.276,183.518,48.845,183.445,48.557z"/>
			<path fill="#D35400" d="M207.35,46.18c-0.434,0.648-0.721,1.656-0.938,2.16c-2.88,6.842-4.896,13.896-7.271,21.026
				c-0.217,0.647-0.289,0.936-0.289,1.151c0,0.145,0.072,0.217,0.217,0.217c0.216,0,0.647-0.146,2.736-2.594
				c4.393-5.184,8.353-10.873,10.801-16.776c0.359-0.864,1.08-1.008,1.871-1.008c0.721,0,1.152,0.144,1.656,0.144
				c1.08,0,2.232,1.152,2.232,2.161c0,1.08-0.504,2.088-2.377,5.256c-1.008,1.729-1.151,2.81-1.512,3.601
				c-1.584,3.528-2.664,7.633-2.664,11.666c0,0.936,0.793,1.367,1.08,1.367c0.433,0,1.729-0.359,3.096-2.089
				c4.25-5.399,4.969-13.753,4.969-14.473c0-1.009,0.361-1.802,0.361-2.664c0-2.017-1.441-4.249-1.441-5.905
				c0-0.432,0.145-1.224,0.793-1.728c0.359-0.288,2.376-0.433,3.023-0.433c1.152,0,0.647,0.433,2.736,1.801
				c1.297,0.864,2.448,1.08,5.473,1.08c3.097,0,5.904-0.864,9.647-0.864c0.647,0,1.656,0,1.656,2.017
				c0,0.936-1.224,1.729-3.455,2.23c-4.537,1.08-5.905,1.873-8.065,1.873c-3.023,0-4.031-0.576-4.607-0.576
				c-0.504,0-0.648,0.359-0.648,0.937c0,0.648,0,2.16-0.072,2.952c-0.358,7.201-3.383,14.329-8.424,19.37
				c-0.721,0.72-1.512,1.224-3.168,1.224c-1.873,0-4.248-0.936-6.121-2.016c-0.863-0.504-2.016-1.656-2.016-3.312
				c0-1.295,0.215-1.943,0.215-2.809c0-0.359-0.07-0.576-0.215-0.576c-0.217,0-0.504,0.288-1.152,0.938
				c-2.16,2.16-3.601,5.257-6.697,5.257c-1.151,0-1.295-0.505-3.022-1.152c-1.151-0.433-2.088-1.151-2.231-1.44
				c-0.145-0.287-0.504-1.295-0.504-2.088c0-0.791,0.144-1.439,0.287-1.943c2.159-8.713,6.553-17.139,7.776-25.562
				c0.072-0.504,0.864-1.224,1.368-1.368c0.646-0.216,1.224-0.216,1.729-0.216c0.721,0,1.297,0.072,2.016,0.072
				c0.505,0,1.729,0.72,1.729,1.656C207.924,45.172,207.637,45.748,207.35,46.18z"/>
			<path fill="#D35400" d="M231.251,73.759c-0.144-0.792-0.216-1.584-0.216-2.448c0-3.312,1.512-6.625,3.096-10.729
				c3.098-8.064,9.506-19.585,14.979-28.946c1.224-2.088,1.656-6.12,4.465-6.12c1.008,0,1.584-0.145,2.376-0.145
				c0.721,0,1.512,0.288,1.872,0.792c0.433,0.648,0.576,1.296,0.576,2.017c0,0.936-0.289,1.8-0.721,2.521
				c-6.553,10.584-14.113,20.232-18.361,31.466c-1.151,2.953-2.735,5.688-2.735,8.856c0,0.865,0.071,1.729,0.358,2.664
				c0.217,0.648,0.793,0.864,1.44,0.864c0.433,0,0.864-0.071,1.224-0.288c3.168-1.943,6.697-8.063,10.01-8.063
				c0.576,0,2.447,0.504,2.447,1.655c0,0.937-0.72,1.225-1.438,2.017c-3.673,3.96-6.625,9.433-12.17,9.433
				C237.947,79.303,231.971,77.719,231.251,73.759z"/>
		</g>
	</g>
</g>
<g id="Layer_2_1_">
	<g id="Layer_3">
		<polygon fill="#006731" points="111.168,54.664 111.306,54.854 111.409,55.025 111.513,55.199 111.825,55.183 112.066,55.199 
			112.308,55.285 112.602,55.304 112.741,55.166 112.67,54.959 112.412,54.716 112.169,54.578 111.894,54.526 111.634,54.56 
			111.409,54.578 		"/>
		<polygon fill="#B6C5BE" points="105.967,51.882 106.057,51.999 106.147,52.115 106.206,52.241 106.264,52.37 106.308,52.524 
			106.349,52.68 106.383,52.808 106.416,52.937 106.468,53.084 106.519,53.229 106.545,53.343 106.571,53.455 106.624,53.593 
			106.675,53.731 106.744,53.833 106.813,53.938 106.891,54.023 106.969,54.111 107.072,54.207 107.176,54.302 107.366,54.319 
			107.557,54.336 107.729,54.345 107.901,54.354 108.108,54.336 108.317,54.319 108.524,54.345 108.731,54.371 109.017,54.361 
			109.302,54.354 109.586,54.326 109.872,54.302 110.01,54.326 110.148,54.354 110.347,54.378 110.545,54.404 110.675,54.492 
			110.805,54.578 110.917,54.681 111.03,54.785 111.099,54.881 111.168,54.976 111.229,55.131 111.289,55.285 111.28,55.423 
			111.271,55.562 111.202,55.683 111.133,55.804 111.021,55.883 110.908,55.961 110.752,56.063 110.598,56.168 110.39,56.194 
			110.183,56.221 109.958,56.228 109.734,56.237 109.466,56.228 109.197,56.221 108.913,56.175 108.627,56.132 108.351,56.132 
			108.074,56.132 107.806,56.132 107.539,56.132 107.332,56.132 107.125,56.132 106.857,56.099 106.589,56.063 106.389,56.037 
			106.19,56.014 106.097,56.004 106.001,55.994 106.07,55.908 106.139,55.823 106.166,55.656 106.19,55.494 106.147,55.347 
			106.105,55.199 106.018,55.025 105.932,54.854 105.768,54.707 105.604,54.56 105.456,54.474 105.31,54.388 105.146,54.319 
			104.981,54.25 104.869,54.214 104.757,54.179 104.696,53.974 104.635,53.765 104.55,53.508 104.463,53.248 104.42,53.091 
			104.377,52.937 104.308,52.729 104.238,52.52 104.161,52.286 104.083,52.054 103.996,51.872 103.91,51.691 103.884,51.57 
			103.858,51.451 103.84,51.242 103.824,51.035 103.91,51.13 103.996,51.226 104.109,51.32 104.221,51.416 104.359,51.501 
			104.497,51.589 104.662,51.675 104.826,51.761 104.956,51.804 105.085,51.847 105.215,51.892 105.344,51.935 105.5,51.951 
			105.655,51.968 105.811,51.925 		"/>
		<polygon fill="#2A5E3E" points="104.566,51.277 104.428,51.166 104.29,51.052 104.144,50.913 103.996,50.775 103.893,50.646 
			103.789,50.516 103.737,50.361 103.686,50.207 103.747,50.007 103.806,49.809 104.022,49.566 104.238,49.324 104.489,49.101 
			104.74,48.876 104.964,48.703 105.188,48.529 105.379,48.367 105.569,48.201 105.803,48.054 106.036,47.907 106.261,47.787 
			106.484,47.666 106.667,47.58 106.847,47.494 107.106,47.399 107.366,47.304 107.539,47.294 107.711,47.285 107.824,47.321 
			107.936,47.354 108.005,47.416 108.074,47.475 108.118,47.528 108.161,47.58 108.187,47.657 108.213,47.735 108.187,47.839 
			108.161,47.942 108.118,48.054 108.074,48.168 108.015,48.278 107.954,48.392 107.91,48.495 107.867,48.6 107.824,48.736 
			107.781,48.876 107.711,49.048 107.642,49.221 107.539,49.402 107.435,49.583 107.366,49.74 107.297,49.895 107.185,50.076 
			107.072,50.259 106.951,50.404 106.831,50.552 106.727,50.699 106.624,50.845 106.476,51.009 106.33,51.173 106.174,51.294 
			106.018,51.416 105.906,51.494 105.793,51.57 105.665,51.605 105.535,51.642 105.318,51.597 105.103,51.554 104.964,51.475 
			104.826,51.398 104.696,51.337 		"/>
		<polygon fill="#2A5E3E" points="99.953,49.931 99.84,49.757 99.728,49.583 99.72,49.359 99.711,49.134 99.823,48.85 
			99.935,48.565 100.083,48.322 100.229,48.08 100.376,47.882 100.523,47.682 100.688,47.475 100.852,47.268 101.032,47.044 
			101.214,46.819 101.387,46.569 101.56,46.318 101.681,46.128 101.802,45.938 101.871,45.695 101.94,45.454 102.113,45.212 
			102.285,44.97 102.424,44.797 102.562,44.625 102.77,44.503 102.977,44.383 103.21,44.313 103.443,44.244 103.676,44.305 
			103.91,44.365 104.169,44.539 104.428,44.711 104.635,44.849 104.844,44.987 105.016,45.151 105.188,45.315 105.361,45.523 
			105.535,45.73 105.689,45.946 105.845,46.162 105.932,46.395 106.018,46.629 106.062,46.862 106.105,47.096 106.052,47.261 
			106.001,47.424 105.932,47.518 105.863,47.613 105.689,47.708 105.517,47.804 105.318,47.986 105.12,48.168 104.895,48.349 
			104.671,48.529 104.394,48.754 104.118,48.979 103.91,49.117 103.703,49.255 103.495,49.412 103.288,49.566 103.09,49.678 
			102.891,49.792 102.709,49.895 102.528,49.997 102.32,50.102 102.113,50.207 101.906,50.309 101.699,50.414 101.482,50.421 
			101.267,50.43 101.024,50.44 100.782,50.447 100.575,50.335 100.367,50.223 100.16,50.076 		"/>
		<polygon fill="#557F36" points="89.913,48.046 90.302,47.916 90.691,47.787 90.959,47.708 91.227,47.63 91.521,47.528 
			91.814,47.424 92.194,47.311 92.575,47.199 92.869,47.086 93.161,46.974 93.499,46.871 93.836,46.767 94.25,46.594 94.665,46.421 
			95.002,46.274 95.339,46.128 95.754,45.98 96.168,45.834 96.514,45.73 96.859,45.627 97.309,45.497 97.758,45.368 98.104,45.264 
			98.449,45.16 98.804,45.039 99.158,44.917 99.417,44.806 99.676,44.693 99.918,44.625 100.16,44.555 100.446,44.512 
			100.73,44.469 101.032,44.357 101.336,44.244 101.62,44.176 101.906,44.106 102.182,44.037 102.459,43.968 102.658,43.891 
			102.856,43.812 103.08,43.743 103.305,43.673 103.573,43.623 103.84,43.571 104.178,43.492 104.515,43.415 104.706,43.346 
			104.895,43.277 105.093,43.207 105.292,43.138 105.586,43.035 105.88,42.931 106.19,42.828 106.502,42.724 106.874,42.542 
			107.245,42.36 107.539,42.188 107.833,42.015 108.1,41.869 108.368,41.722 108.68,41.523 108.99,41.324 109.327,41.083 
			109.664,40.84 109.949,40.598 110.235,40.355 110.46,40.036 110.684,39.717 110.874,39.415 111.064,39.111 111.15,38.828 
			111.237,38.542 111.28,38.179 111.324,37.816 111.21,37.522 111.099,37.229 110.9,36.893 110.701,36.555 110.407,36.278 
			110.113,36.002 109.759,35.75 109.405,35.5 108.964,35.215 108.524,34.93 108.222,34.792 107.919,34.654 107.573,34.481 
			107.228,34.309 106.891,34.205 106.553,34.101 106.217,34.04 105.88,33.979 105.56,33.928 105.241,33.876 104.799,33.79 
			104.359,33.704 103.875,33.661 103.392,33.617 103.055,33.677 102.717,33.738 102.208,33.868 101.699,33.997 101.301,34.178 
			100.904,34.36 100.688,34.49 100.471,34.619 100.091,34.775 99.711,34.93 99.253,35.215 98.795,35.5 98.458,35.75 98.121,36.002 
			97.75,36.261 97.378,36.521 97.11,36.797 96.843,37.073 96.462,37.4 96.083,37.729 95.797,38.015 95.513,38.3 95.184,38.646 
			94.855,38.991 94.544,39.311 94.233,39.63 93.992,39.95 93.749,40.271 93.603,40.469 93.455,40.668 93.256,40.865 93.058,41.065 
			92.869,41.333 92.678,41.6 92.531,41.851 92.384,42.101 92.212,42.396 92.039,42.689 91.883,42.887 91.728,43.086 91.451,43.483 
			91.174,43.881 91.01,44.176 90.846,44.469 90.717,44.754 90.587,45.039 90.397,45.359 90.207,45.679 90.061,45.964 89.913,46.249 
			89.758,46.524 89.603,46.801 89.42,47.034 89.239,47.268 89.083,47.511 88.928,47.751 88.808,47.958 88.686,48.168 88.635,48.288 
			88.583,48.409 88.635,48.46 88.686,48.513 88.824,48.46 88.962,48.409 89.075,48.357 89.187,48.306 89.325,48.244 89.464,48.185 
			89.688,48.115 		"/>
		<polygon fill="#9CB78A" points="93.42,47.511 93.386,47.64 93.352,47.771 93.378,47.942 93.404,48.115 93.473,48.262 
			93.542,48.409 93.646,48.565 93.749,48.72 93.921,48.937 94.095,49.153 94.25,49.271 94.406,49.393 94.57,49.507 94.734,49.616 
			94.89,49.697 95.045,49.773 95.244,49.816 95.442,49.859 95.693,49.835 95.944,49.809 96.237,49.783 96.531,49.757 96.764,49.697 
			96.998,49.635 97.206,49.6 97.413,49.566 97.672,49.531 97.932,49.498 98.096,49.436 98.26,49.376 98.449,49.333 98.64,49.291 
			98.769,49.212 98.899,49.134 99.055,49.039 99.209,48.945 99.27,48.858 99.331,48.772 99.4,48.591 99.469,48.409 99.556,48.235 
			99.641,48.063 99.781,47.882 99.918,47.7 100.065,47.494 100.212,47.285 100.359,47.122 100.506,46.957 100.645,46.81 
			100.782,46.664 100.904,46.491 101.024,46.318 101.137,46.154 101.249,45.99 101.344,45.799 101.439,45.609 101.49,45.471 
			101.543,45.332 101.594,45.22 101.646,45.108 101.715,44.979 101.784,44.849 101.828,44.763 101.871,44.677 101.664,44.736 
			101.456,44.797 101.241,44.866 101.024,44.936 100.774,45.013 100.523,45.091 100.247,45.143 99.97,45.194 99.771,45.282 
			99.572,45.368 99.349,45.454 99.124,45.541 98.916,45.583 98.708,45.627 98.493,45.713 98.276,45.799 97.94,45.912 97.603,46.023 
			97.257,46.119 96.912,46.214 96.634,46.292 96.358,46.37 96.143,46.431 95.927,46.491 95.675,46.586 95.426,46.681 95.227,46.767 
			95.028,46.853 94.795,46.957 94.562,47.061 94.363,47.166 94.164,47.268 93.939,47.347 93.714,47.424 93.568,47.467 		"/>
		<polyline fill="#B6C5BE" points="101.811,53.612 101.8,53.596 101.789,53.579 101.732,53.353 101.633,53.129 101.594,52.879 
			101.594,52.627 101.668,52.427 101.718,52.227 101.78,52.011 101.834,51.796 101.863,51.605 101.89,51.416 101.914,51.304 
			101.94,51.189 101.906,51.095 101.871,50.999 101.794,50.896 101.715,50.792 101.62,50.749 101.525,50.706 101.387,50.716 
			101.249,50.723 101.084,50.742 100.92,50.759 100.774,50.723 100.626,50.689 100.48,50.646 100.333,50.604 100.255,50.542 
			100.178,50.482 100.083,50.44 99.988,50.395 99.918,50.457 99.85,50.516 99.823,50.638 99.797,50.759 99.823,50.904 99.85,51.052 
			99.893,51.183 99.935,51.313 99.988,51.458 100.039,51.605 100.083,51.777 100.125,51.951 100.152,52.079 100.178,52.21 
			100.168,52.375 100.16,52.539 100.144,52.703 100.125,52.867 100.1,53.038 100.073,53.212 100.039,53.402 100.004,53.593 
			99.988,53.722 99.97,53.853 99.945,53.974 99.918,54.093 99.901,54.207 99.884,54.319 99.875,54.412 99.866,54.509 99.815,54.578 
			99.763,54.647 99.686,54.69 99.607,54.733 99.46,54.75 99.314,54.769 99.141,54.785 98.968,54.802 98.787,54.812 98.605,54.818 
			98.39,54.828 98.173,54.838 97.879,54.818 97.585,54.802 97.456,54.828 97.326,54.854 97.222,54.914 97.119,54.976 97.015,55.088 
			96.912,55.199 96.886,55.285 96.859,55.371 96.869,55.485 96.877,55.597 96.946,55.692 97.015,55.787 97.119,55.883 
			97.222,55.978 97.352,56.072 97.481,56.168 97.638,56.221 97.793,56.271 97.966,56.297 98.139,56.322 98.355,56.332 98.57,56.342 
			98.769,56.349 98.968,56.358 99.132,56.349 99.296,56.342 99.901,56.349 100.506,56.358 100.869,56.365 101.232,56.375 
			101.535,56.349 101.837,56.322 102.035,56.306 102.234,56.289 102.476,56.313 102.717,56.342 102.977,56.297 103.236,56.306 
			103.461,56.271 103.651,56.254 103.927,56.211 104.169,56.201 104.55,56.185 104.913,56.151 105.146,56.104 105.379,56.092 
			105.5,56.018 105.621,55.939 105.733,55.804 105.845,55.666 105.872,55.476 105.898,55.285 105.742,55.113 105.638,54.94 
			105.535,54.785 105.292,54.631 105.128,54.568 104.964,54.509 104.765,54.474 104.566,54.44 104.394,54.431 104.221,54.421 
			104.022,54.397 103.824,54.371 103.607,54.361 103.392,54.354 103.185,54.326 102.977,54.302 102.822,54.283 102.666,54.267 
			102.571,54.26 102.476,54.25 102.295,54.224 102.113,54.197 102.044,54.093 101.975,53.99 101.906,53.886 101.837,53.783 		"/>
		<polygon fill="#006731" points="96.721,54.976 96.67,55.071 96.618,55.166 96.583,55.278 96.549,55.39 96.565,55.476 
			96.583,55.562 96.6,55.642 96.618,55.718 96.497,55.699 96.376,55.683 96.273,55.633 96.168,55.58 96.048,55.545 95.927,55.511 
			95.797,55.527 95.667,55.545 95.547,55.587 95.426,55.633 95.288,55.666 95.149,55.699 95.071,55.699 94.994,55.699 
			94.925,55.642 94.855,55.58 94.917,55.485 94.976,55.39 95.089,55.304 95.201,55.216 95.356,55.113 95.513,55.009 95.659,54.949 
			95.805,54.888 95.953,54.881 96.099,54.871 96.229,54.864 96.358,54.854 96.541,54.914 		"/>
		<polygon fill="#9CB78A" points="104.29,44.072 104.428,44.158 104.566,44.244 104.714,44.357 104.86,44.469 104.998,44.573 
			105.137,44.677 105.241,44.78 105.344,44.884 105.474,45.021 105.604,45.16 105.708,45.273 105.811,45.385 105.923,45.532 
			106.036,45.679 106.122,45.826 106.208,45.972 106.286,46.103 106.364,46.232 106.398,46.379 106.433,46.524 106.468,46.638 
			106.502,46.75 106.528,46.88 106.553,47.009 106.537,47.139 106.519,47.268 106.658,47.226 106.796,47.183 106.908,47.139 
			107.021,47.096 107.133,47.07 107.245,47.044 107.392,47.009 107.539,46.974 107.677,46.966 107.816,46.957 107.945,47.018 
			108.074,47.078 108.169,47.147 108.265,47.217 108.429,47.199 108.593,47.183 108.749,47.166 108.905,47.147 109.077,47.078 
			109.25,47.009 109.422,46.94 109.595,46.871 109.769,46.801 109.941,46.733 110.122,46.646 110.304,46.56 110.477,46.474 
			110.649,46.388 110.866,46.232 111.081,46.076 111.28,45.964 111.479,45.851 111.687,45.704 111.894,45.558 112.109,45.445 
			112.326,45.332 112.585,45.108 112.844,44.884 113.078,44.685 113.311,44.486 113.518,44.296 113.725,44.106 113.889,43.925 
			114.053,43.743 114.244,43.562 114.434,43.38 114.623,43.182 114.813,42.982 115.012,42.767 115.211,42.551 115.375,42.343 
			115.54,42.136 115.677,41.912 115.816,41.688 115.937,41.497 116.058,41.307 116.239,41.039 116.421,40.77 116.507,40.582 
			116.594,40.391 116.671,40.201 116.75,40.011 116.835,39.7 116.922,39.388 116.975,39.164 117.025,38.939 117.086,38.697 
			117.147,38.456 117.182,38.214 117.216,37.972 117.25,37.772 117.285,37.574 117.311,37.375 117.337,37.176 117.139,37.081 
			116.938,36.987 116.758,36.875 116.577,36.762 116.421,36.65 116.265,36.537 116.075,36.425 115.886,36.313 115.661,36.166 
			115.436,36.019 115.298,35.897 115.16,35.777 114.978,35.612 114.797,35.449 114.649,35.319 114.503,35.189 114.382,35.06 
			114.261,34.93 114.157,34.818 114.053,34.706 113.933,34.576 113.812,34.447 113.716,34.533 113.621,34.619 113.457,34.723 
			113.293,34.826 113.138,34.921 112.982,35.017 112.8,35.103 112.62,35.189 112.403,35.241 112.188,35.293 112.005,35.302 
			111.825,35.311 111.643,35.25 111.461,35.189 111.271,35.052 111.081,34.913 110.951,34.749 110.823,34.585 110.752,34.447 
			110.684,34.309 110.623,34.144 110.563,33.979 110.519,33.833 110.477,33.686 110.46,33.539 110.442,33.393 110.399,33.246 
			110.355,33.099 110.062,33.116 109.769,33.133 109.586,33.142 109.405,33.15 109.207,33.133 109.008,33.116 108.775,33.099 
			108.542,33.081 108.265,33.047 107.988,33.012 107.703,32.934 107.418,32.857 107.193,32.752 106.969,32.65 106.735,32.537 
			106.502,32.424 106.312,32.287 106.122,32.148 105.915,32.054 105.708,31.958 105.543,31.846 105.379,31.734 105.215,31.871 
			105.051,32.01 104.886,32.192 104.722,32.373 104.627,32.512 104.532,32.65 104.402,32.779 104.272,32.909 104.178,33.012 
			104.083,33.116 104.308,33.15 104.532,33.185 104.826,33.228 105.12,33.271 105.405,33.323 105.689,33.375 105.923,33.418 
			106.156,33.461 106.389,33.513 106.624,33.565 106.865,33.634 107.106,33.704 107.384,33.815 107.66,33.928 107.919,34.04 
			108.179,34.153 108.42,34.273 108.662,34.395 108.913,34.542 109.163,34.688 109.414,34.844 109.664,35 109.88,35.138 
			110.097,35.276 110.278,35.415 110.46,35.553 110.649,35.691 110.839,35.829 110.995,35.993 111.15,36.158 111.271,36.339 
			111.393,36.521 111.496,36.718 111.6,36.917 111.687,37.133 111.772,37.35 111.816,37.634 111.859,37.92 111.841,38.248 
			111.825,38.576 111.738,38.818 111.652,39.06 111.547,39.311 111.444,39.562 111.297,39.803 111.15,40.045 110.969,40.305 
			110.787,40.564 110.598,40.788 110.407,41.013 110.166,41.168 109.923,41.324 109.682,41.531 109.44,41.738 109.207,41.894 
			108.974,42.051 108.696,42.213 108.42,42.378 108.195,42.508 107.971,42.637 107.746,42.749 107.522,42.862 107.254,42.992 
			106.986,43.12 106.709,43.233 106.433,43.346 106.113,43.44 105.793,43.536 105.5,43.648 105.207,43.76 104.964,43.838 
			104.722,43.916 104.507,43.993 		"/>
		<polygon fill="#557F36" points="111.062,31.803 111.226,31.694 111.39,31.587 111.59,31.511 111.79,31.436 111.961,31.389 
			112.135,31.343 112.299,31.306 112.463,31.271 112.636,31.261 112.81,31.25 112.922,31.294 113.034,31.337 113.146,31.388 
			113.258,31.44 113.396,31.552 113.536,31.664 113.647,31.785 113.759,31.906 113.82,32.054 113.881,32.2 113.941,32.364 
			114.002,32.528 114.071,32.709 114.14,32.891 114.183,33.039 114.226,33.185 114.252,33.314 114.278,33.443 114.261,33.6 
			114.244,33.756 114.201,33.858 114.157,33.962 114.122,34.04 114.088,34.118 114.217,34.266 114.347,34.412 114.477,34.542 
			114.606,34.671 114.762,34.826 114.917,34.982 115.099,35.155 115.28,35.328 115.47,35.474 115.661,35.622 115.842,35.75 
			116.023,35.881 116.188,35.993 116.352,36.106 116.533,36.218 116.715,36.33 116.879,36.451 117.043,36.571 117.25,36.659 
			117.458,36.745 117.683,36.804 117.907,36.866 118.106,36.831 118.305,36.797 118.477,36.718 118.65,36.641 118.866,36.495 
			119.082,36.347 119.255,36.235 119.428,36.123 119.558,35.984 119.688,35.846 119.86,35.648 120.032,35.449 120.197,35.25 
			120.361,35.052 120.456,34.869 120.551,34.688 120.698,34.42 120.845,34.153 120.957,33.954 121.069,33.756 121.173,33.47 
			121.277,33.185 121.359,32.934 121.441,32.684 121.471,32.417 121.5,32.148 121.5,31.975 121.5,31.803 121.5,31.803 121.5,31.803 
			121.51,31.612 121.519,31.422 121.476,31.215 121.432,31.008 121.346,30.749 121.259,30.488 121.156,30.291 121.052,30.092 
			120.949,29.91 120.845,29.729 120.689,29.556 120.533,29.383 120.369,29.185 120.205,28.986 119.98,28.796 119.756,28.605 
			119.548,28.433 119.341,28.26 119.168,28.147 118.996,28.036 118.788,27.914 118.581,27.793 118.339,27.707 118.098,27.621 
			117.863,27.569 117.63,27.517 117.389,27.448 117.147,27.379 116.904,27.361 116.663,27.344 116.429,27.336 116.196,27.327 
			116.015,27.336 115.833,27.344 115.643,27.354 115.454,27.361 115.298,27.371 115.142,27.379 115.004,27.379 114.866,27.379 
			114.736,27.354 114.606,27.327 114.46,27.241 114.312,27.154 114.166,26.964 114.019,26.774 113.915,26.601 113.812,26.429 
			113.647,26.221 113.483,26.015 113.319,25.85 113.155,25.686 112.991,25.564 112.827,25.443 112.628,25.305 112.429,25.167 
			112.179,25.054 111.928,24.942 111.626,24.847 111.324,24.752 111.107,24.7 110.892,24.648 110.58,24.623 110.27,24.596 
			110.028,24.588 109.785,24.58 109.526,24.596 109.266,24.614 109.017,24.648 108.766,24.683 108.532,24.727 108.299,24.77 
			108.074,24.813 107.851,24.856 107.634,24.925 107.418,24.994 107.21,25.072 107.003,25.149 106.813,25.253 106.624,25.357 
			106.45,25.478 106.277,25.599 106.07,25.772 105.863,25.944 105.708,26.1 105.551,26.255 105.405,26.454 105.258,26.653 
			105.172,26.834 105.085,27.016 105.016,27.197 104.947,27.379 104.878,27.612 104.809,27.846 104.774,28.07 104.74,28.295 
			104.714,28.546 104.688,28.796 104.679,29.046 104.671,29.296 104.688,29.547 104.706,29.798 104.783,30.109 104.86,30.42 
			104.956,30.61 105.051,30.8 105.18,30.956 105.31,31.111 105.448,31.231 105.586,31.354 105.733,31.458 105.88,31.561 
			106.087,31.656 106.295,31.751 106.459,31.871 106.624,31.993 106.857,32.104 107.09,32.217 107.279,32.304 107.47,32.39 
			107.677,32.459 107.885,32.528 108.126,32.588 108.368,32.65 108.601,32.684 108.834,32.718 109.077,32.727 109.319,32.735 
			109.491,32.718 109.664,32.701 109.828,32.693 109.992,32.684 110.131,32.675 110.27,32.667 110.32,32.65 110.373,32.632 
			110.434,32.485 110.494,32.337 110.588,32.226 110.684,32.114 110.762,32.018 110.839,31.923 110.951,31.863 		"/>
		<polygon fill="#2D473B" points="111.634,34.792 111.496,34.697 111.358,34.602 111.229,34.429 111.099,34.256 111.021,34.04 
			110.943,33.824 110.908,33.625 110.874,33.427 110.823,33.254 110.771,33.081 110.813,32.865 110.857,32.65 110.951,32.485 
			111.046,32.321 111.21,32.208 111.375,32.097 111.573,31.993 111.772,31.889 112.023,31.828 112.273,31.768 112.506,31.726 
			112.741,31.682 112.93,31.759 113.12,31.837 113.224,31.958 113.327,32.079 113.406,32.243 113.483,32.407 113.561,32.58 
			113.639,32.752 113.7,32.917 113.759,33.081 113.794,33.228 113.828,33.375 113.82,33.496 113.812,33.617 113.786,33.729 
			113.759,33.842 113.682,33.954 113.604,34.066 113.509,34.144 113.414,34.222 113.285,34.325 113.155,34.429 112.964,34.542 
			112.775,34.654 112.646,34.714 112.516,34.775 112.352,34.835 112.188,34.896 112.005,34.878 111.825,34.862 111.729,34.826 		"/>
		<polygon fill="#B6C5BE" points="114.244,31.716 114.209,31.535 114.175,31.354 114.148,31.198 114.122,31.042 114.132,30.878 
			114.14,30.714 114.175,30.541 114.209,30.368 114.244,30.205 114.278,30.04 114.339,29.85 114.399,29.659 114.485,29.513 
			114.572,29.366 114.649,29.246 114.728,29.124 114.823,29.02 114.917,28.917 115.03,28.796 115.142,28.675 115.29,28.588 
			115.436,28.502 115.6,28.417 115.764,28.329 115.945,28.303 116.127,28.277 116.378,28.226 116.628,28.173 116.853,28.156 
			117.078,28.14 117.285,28.165 117.492,28.191 117.735,28.243 117.976,28.295 118.175,28.347 118.374,28.398 118.52,28.485 
			118.667,28.571 118.849,28.666 119.03,28.761 119.134,28.856 119.237,28.951 119.384,29.056 119.531,29.158 119.626,29.279 
			119.722,29.401 119.808,29.529 119.895,29.659 119.972,29.79 120.05,29.919 120.11,30.075 120.17,30.23 120.223,30.377 
			120.274,30.524 120.3,30.653 120.326,30.783 120.334,30.939 120.343,31.094 120.334,31.215 120.326,31.336 120.274,31.508 
			120.223,31.682 120.144,31.854 120.067,32.027 119.963,32.166 119.86,32.304 119.781,32.417 119.704,32.528 119.601,32.658 
			119.497,32.788 119.333,32.891 119.168,32.995 119.03,33.081 118.893,33.167 118.729,33.254 118.564,33.341 118.374,33.41 
			118.183,33.479 118.037,33.53 117.89,33.582 117.725,33.634 117.561,33.686 117.415,33.72 117.267,33.756 117.129,33.781 
			116.991,33.807 116.784,33.781 116.577,33.756 116.326,33.652 116.075,33.548 115.868,33.461 115.661,33.375 115.462,33.271 
			115.263,33.167 115.125,33.081 114.986,32.995 114.788,32.77 114.589,32.546 114.511,32.433 114.434,32.321 114.382,32.156 
			114.331,31.993 114.287,31.854 		"/>
		<polygon fill="#B6C5BE" points="112.757,28.709 112.775,28.51 112.792,28.312 112.757,28.096 112.723,27.88 112.646,27.673 
			112.567,27.465 112.455,27.249 112.343,27.034 112.169,26.851 111.997,26.67 111.807,26.515 111.618,26.359 111.409,26.255 
			111.202,26.152 110.969,26.04 110.736,25.928 110.46,25.85 110.183,25.772 109.949,25.754 109.716,25.738 109.475,25.772 
			109.232,25.806 109.033,25.884 108.834,25.962 108.619,26.073 108.402,26.187 108.273,26.325 108.144,26.463 107.988,26.636 
			107.833,26.808 107.686,27.034 107.539,27.258 107.427,27.44 107.313,27.621 107.254,27.837 107.193,28.052 107.159,28.27 
			107.125,28.485 107.149,28.693 107.176,28.899 107.22,29.056 107.263,29.21 107.348,29.392 107.435,29.573 107.539,29.754 
			107.642,29.936 107.772,30.083 107.901,30.23 108.023,30.352 108.144,30.472 108.256,30.559 108.368,30.645 108.507,30.722 
			108.645,30.8 108.826,30.887 109.008,30.973 109.207,31.016 109.405,31.06 109.621,31.086 109.837,31.111 110.097,31.094 
			110.355,31.077 110.502,31.05 110.649,31.025 110.839,30.981 111.03,30.939 111.168,30.896 111.306,30.853 111.488,30.765 
			111.669,30.679 111.825,30.559 111.98,30.438 112.092,30.282 112.204,30.126 112.291,29.971 112.378,29.815 112.463,29.634 
			112.55,29.453 112.611,29.262 112.67,29.072 112.715,28.891 		"/>
		<polygon fill="#596C55" points="108.8,29.867 109.059,30.075 109.44,30.264 109.976,30.368 110.477,30.352 110.961,30.144 
			111.358,29.902 111.703,29.573 112.049,29.124 112.135,28.641 112.101,28.104 111.91,27.655 111.652,27.292 111.324,26.982 
			110.839,26.74 110.338,26.584 109.734,26.567 109.197,26.653 108.783,26.964 108.489,27.223 108.195,27.69 108.108,28.156 
			108.144,28.623 108.265,29.056 108.489,29.522 		"/>
		<polygon fill="#596C55" points="115.401,30.316 115.523,29.936 115.747,29.659 115.971,29.487 116.387,29.246 116.957,29.158 
			117.389,29.21 117.82,29.332 118.287,29.591 118.65,29.815 118.944,30.126 119.168,30.488 119.237,30.887 119.203,31.354 
			119.065,31.734 118.909,32.079 118.495,32.528 118.114,32.735 117.648,32.943 117.25,33.081 116.75,32.977 116.214,32.735 
			115.851,32.459 115.54,32.062 115.333,31.682 115.211,31.354 115.229,31.008 115.28,30.679 		"/>
		<polygon fill="#9CB78A" points="109.319,24.165 109.491,24.19 109.664,24.217 109.898,24.208 110.131,24.199 110.338,24.208 
			110.545,24.217 110.796,24.243 111.046,24.269 111.271,24.319 111.496,24.372 111.677,24.424 111.859,24.476 112.023,24.537 
			112.188,24.596 112.368,24.666 112.55,24.734 112.741,24.847 112.93,24.959 113.068,25.054 113.207,25.149 113.337,25.262 
			113.465,25.375 113.629,25.547 113.794,25.72 113.923,25.867 114.053,26.015 114.157,26.187 114.261,26.359 114.373,26.515 
			114.485,26.67 114.563,26.765 114.641,26.86 114.745,26.921 114.848,26.982 115.125,26.973 115.401,26.964 115.626,26.956 
			115.851,26.946 116.075,26.939 116.3,26.93 116.507,26.921 116.715,26.912 116.957,26.956 117.198,26.999 117.423,27.025 
			117.648,27.05 117.907,27.127 118.167,27.206 118.374,27.284 118.581,27.361 118.763,27.448 118.944,27.535 119.151,27.63 
			119.359,27.724 119.523,27.837 119.688,27.95 119.86,28.088 120.032,28.226 120.162,28.355 120.292,28.485 120.387,28.58 
			120.482,28.675 120.594,28.761 120.706,28.848 120.793,28.977 120.879,29.106 120.949,29.176 121.018,29.246 120.957,29.081 
			120.896,28.917 120.758,28.675 120.62,28.433 120.525,28.243 120.43,28.052 120.353,27.863 120.274,27.673 120.136,27.5 
			119.998,27.327 119.833,27.103 119.669,26.878 119.497,26.713 119.324,26.549 119.16,26.411 118.996,26.272 118.832,26.144 
			118.667,26.015 118.485,25.919 118.305,25.824 118.149,25.686 117.993,25.547 117.812,25.418 117.63,25.288 117.389,25.124 
			117.147,24.959 116.896,24.839 116.646,24.717 116.378,24.605 116.109,24.494 115.851,24.441 115.592,24.389 115.341,24.319 
			115.091,24.251 114.848,24.199 114.606,24.147 114.355,24.104 114.105,24.062 113.907,24.01 113.708,23.957 113.44,23.915 
			113.173,23.871 112.991,23.853 112.81,23.836 112.533,23.845 112.256,23.853 111.91,23.88 111.565,23.905 111.297,23.923 
			111.03,23.94 110.787,23.966 110.545,23.992 110.338,24.018 110.131,24.043 109.984,24.052 109.837,24.062 109.578,24.113 		"/>
		<polygon fill="#006731" points="106.087,54.976 106.234,54.966 106.381,54.959 106.468,54.959 106.553,54.959 106.667,55.025 
			106.778,55.095 106.857,55.166 106.934,55.235 107.003,55.304 107.072,55.371 107.125,55.442 107.176,55.511 107.193,55.57 
			107.21,55.633 107.167,55.649 107.125,55.666 107.021,55.666 106.917,55.666 106.796,55.633 106.675,55.597 106.537,55.58 
			106.398,55.562 106.312,55.58 106.226,55.597 106.217,55.485 106.208,55.371 106.156,55.285 106.105,55.199 106.097,55.088 		"/>
	</g>
	<g>
		<path fill="#D35400" d="M44.312,76.602c-0.312,0-0.676-0.053-1.508-0.364c-1.977-0.729-2.809-2.393-2.809-4.94
			c0-1.612,0.312-3.536,0.988-5.824s1.3-3.848,1.924-5.356c0.156-0.364,0.208-0.52,0.208-0.624c0-0.052-0.052-0.104-0.104-0.104
			c-0.104,0-0.312,0.156-0.676,0.572c-3.536,4.056-7.125,10.088-10.192,13.676c-0.26,0.312-0.312,0.364-0.572,0.521
			c-0.521,0.312-1.248,0.676-1.977,0.676c-0.26,0-1.872-0.624-2.704-1.456c-0.156-0.156-0.208-0.416-0.208-0.572
			c0-0.572,0.26-0.52,0.468-1.404c1.612-6.916,5.408-14.404,9.829-23.192c2.184-4.368,5.096-9.152,7.644-14.249
			c0.312-0.624,0.832-0.728,1.352-0.728s0.832,0.104,1.092,0.104c0.468,0,1.04,0.364,1.456,0.78c0.364,0.364,0.468,0.624,0.468,1.3
			c0,1.352-1.092,2.184-2.444,3.848c-0.468,0.572-0.572,0.832-0.988,1.404c-4.68,6.448-8.788,17.057-12.688,25.324
			c-0.416,0.885-0.468,0.988-0.468,1.041c0,0.052,0,0.104,0.104,0.104c0.052,0,0.104-0.052,0.364-0.416
			c4.212-5.876,8.008-10.349,11.805-14.457c0.728-0.779,0.988-1.039,1.456-1.195c0.468-0.156,0.936-0.26,1.196-0.26
			c0.52,0,1.508,0.207,1.924,0.363c0.364,0.156,0.78,0.624,0.78,0.988c0,1.508-0.624,2.548-1.56,4.16
			c-0.728,1.248-0.936,2.184-1.352,3.172c-1.404,3.328-2.704,7.593-2.704,11.129c0,2.496,0.52,3.016,1.3,3.432
			c0.312,0.156,0.884,0.208,1.3,0.312c0.208,0.052,0.364,0.26,0.364,0.416c0,0.208-0.156,0.416-0.26,0.676
			c-0.156,0.364-0.624,0.624-0.988,0.729C45.508,76.341,44.987,76.602,44.312,76.602z"/>
		<path fill="#D35400" d="M58.611,75.509c-0.624,0-1.145-0.052-1.977-0.364c-1.144-0.416-2.964-1.248-3.328-1.455
			c-1.04-0.572-2.028-1.873-2.6-3.589c-0.364-1.04-0.624-3.016-0.624-4.004c0-0.468,0.052-0.988,0.26-1.716
			c1.456-5.305,4.992-9.881,8.944-14.093c0.884-0.936,3.016-2.34,5.564-2.34c1.404,0,2.132,0.208,3.172,0.572
			c0.572,0.208,1.664,1.144,1.664,3.224c0,1.352-0.572,2.496-1.196,3.744c-0.52,1.04-0.936,1.612-1.664,2.444
			c-3.588,4.056-7.644,8.58-12.064,11.024c-0.26,0.156-0.312,0.26-0.312,0.416c0,0.832,0.78,1.924,1.248,2.184
			c0.572,0.312,1.092,0.416,1.612,0.416c0.884,0,1.664-0.208,4.004-1.456c3.588-1.924,5.772-4.731,8.892-6.708
			c0.572-0.364,0.832-0.364,1.04-0.364c0.312,0,1.04,0.521,1.04,1.04c0,0.469-0.052,0.521-0.052,0.676c0,0.209,0,0.521-0.26,0.729
			c-2.496,2.132-3.588,4.732-11.492,9.101C59.547,75.509,59.287,75.509,58.611,75.509z M65.319,51.744c0-0.416,0-0.624-0.312-0.624
			s-0.624,0.156-1.092,0.468c-0.572,0.364-0.52,0.208-1.04,0.676c-3.38,3.017-7.02,7.281-8.164,11.909
			c0,0.208,0.052,0.26,0.104,0.26c0.104,0,0.208-0.052,0.364-0.156c3.068-2.34,5.616-5.2,7.957-8.008
			c0.78-0.937,0.572-1.093,1.248-2.132C64.903,53.356,65.319,52.68,65.319,51.744z"/>
		<path fill="#D35400" d="M92.152,53.2c0.26,0,1.04,0.052,1.456,0.676c0.104,0.156,0.104,0.208,0.104,0.312
			c0,0.208-0.104,0.416-0.208,0.571c-2.288,3.121-5.044,7.021-6.032,11.025c-0.364,1.455-0.728,3.016-0.728,4.628
			c0,1.352,0.312,2.704,1.092,3.899c0.052,0.104,0.104,0.209,0.104,0.312s-0.208,0.624-1.092,0.729
			c-0.312,0.052-0.676,0.207-0.988,0.207c-0.78,0-1.924-0.363-2.236-1.039c-0.676-1.509-0.884-3.017-0.884-4.473
			c0-1.561,0.208-2.444,0.208-2.6c0-0.209,0-0.261-0.208-0.261s-0.676,0.364-1.248,0.937l-2.809,2.6
			c-2.704,2.549-4.368,3.276-6.188,3.9c-0.312,0.104-0.624,0.208-0.832,0.208c-0.572,0-1.196-0.364-3.64-2.34
			c-0.26-0.208-1.144-1.093-1.144-3.068c0-1.716,0.572-3.9,3.12-7.696c3.068-4.576,5.928-6.656,7.488-7.801
			c2.548-1.871,5.252-3.224,8.32-4.107c0.364-0.104,0.78-0.156,1.144-0.156c1.196,0,2.236,0.572,3.172,1.508
			c0.26,0.26,0.676,0.729,0.78,1.04C91.112,52.732,91.58,53.2,92.152,53.2z M85.964,53.408c-4.888,2.6-8.736,5.46-11.7,9.049
			c-2.184,2.651-3.9,5.72-3.9,7.228c0,0.624,0.208,1.404,1.145,1.404c0.416,0,1.612-0.572,2.548-1.456
			c4.836-4.524,10.296-8.008,12.948-12.948c0.364-0.677,0.937-1.404,1.508-1.977c0.156-0.155,0.26-0.468,0.26-0.78
			c0-0.363-0.312-1.039-1.196-1.039C87.42,52.889,86.64,53.044,85.964,53.408z"/>
		<path fill="#D35400" d="M103.539,52.836c-0.521,1.092-1.196,3.068-1.196,3.225c0,0.104,0.104,0.156,0.208,0.156
			c0.156,0,0.78-0.104,1.3-0.209c2.288-0.468,5.252-1.56,6.969-2.6c0.26-0.156,0.468-0.26,0.572-0.26
			c0.884,0,2.548,0.728,2.548,1.352c0,0.676-0.572,1.508-1.716,1.977c-1.404,0.572-1.404,0.728-2.34,1.092
			c-2.548,0.988-6.968,1.977-8.06,2.34c-0.468,0.156-0.78,0.416-0.988,0.78c-0.416,0.728-0.676,1.716-0.884,2.496
			c-0.156,0.572-0.468,1.092-0.572,1.664c-0.312,1.716-2.08,6.136-2.393,8.736c-0.052,0.468-0.572,1.82-1.3,2.185
			c-0.208,0.104-0.572,0.155-0.78,0.155c-0.624,0-1.456-0.26-1.872-0.571c-0.416-0.312-0.572-0.78-0.572-1.248
			c0-0.416,0.052-1.093,0.208-1.561c1.3-3.848,2.236-8.372,3.9-12.377c0.052-0.155,0.104-0.26,0.104-0.363
			c0-0.104-0.052-0.208-0.26-0.312c-1.872-0.936-2.184-2.288-3.38-3.275c-0.26-0.209-0.26-0.469-0.26-0.625
			c0-0.363,0.208-0.468,0.624-0.676c0.312-0.156,0.572-0.26,1.04-0.26c1.144,0,2.444,0.832,3.38,0.832
			c0.468,0,0.78-0.26,0.884-0.729c0.156-0.571,0.416-1.352,0.832-2.443c1.248-3.172,2.652-7.229,4.42-11.024
			c0.312-0.676,0.364-0.676,0.572-0.676c0.832,0,0.936-0.26,1.456-0.26c0.468,0,1.352,0.156,1.976,0.416
			c0.26,0.104,0.468,0.208,0.468,0.364c0,0.104,0,0.26-0.052,0.572C107.699,45.764,105.203,49.3,103.539,52.836z"/>
		<path fill="#D35400" d="M121.739,76.602c-0.312,0-0.676-0.053-1.508-0.364c-1.977-0.729-2.809-2.393-2.809-4.94
			c0-1.612,0.312-3.536,0.988-5.824s1.3-3.848,1.924-5.356c0.156-0.364,0.208-0.52,0.208-0.624c0-0.052-0.052-0.104-0.104-0.104
			c-0.104,0-0.312,0.156-0.676,0.572c-3.536,4.056-7.125,10.088-10.192,13.676c-0.26,0.312-0.312,0.364-0.572,0.521
			c-0.521,0.312-1.248,0.676-1.977,0.676c-0.26,0-1.872-0.624-2.704-1.456c-0.156-0.156-0.208-0.416-0.208-0.572
			c0-0.572,0.26-0.52,0.468-1.404c1.612-6.916,5.408-14.404,9.829-23.192c2.184-4.368,5.096-9.152,7.644-14.249
			c0.312-0.624,0.832-0.728,1.352-0.728s0.832,0.104,1.092,0.104c0.468,0,1.04,0.364,1.456,0.78c0.364,0.364,0.468,0.624,0.468,1.3
			c0,1.352-1.092,2.184-2.444,3.848c-0.468,0.572-0.572,0.832-0.988,1.404c-4.68,6.448-8.788,17.057-12.688,25.324
			c-0.416,0.885-0.468,0.988-0.468,1.041c0,0.052,0,0.104,0.104,0.104c0.052,0,0.104-0.052,0.364-0.416
			c4.212-5.876,8.008-10.349,11.805-14.457c0.728-0.779,0.988-1.039,1.456-1.195c0.468-0.156,0.936-0.26,1.196-0.26
			c0.52,0,1.508,0.207,1.924,0.363c0.364,0.156,0.78,0.624,0.78,0.988c0,1.508-0.624,2.548-1.56,4.16
			c-0.728,1.248-0.936,2.184-1.352,3.172c-1.404,3.328-2.704,7.593-2.704,11.129c0,2.496,0.52,3.016,1.3,3.432
			c0.312,0.156,0.884,0.208,1.3,0.312c0.208,0.052,0.364,0.26,0.364,0.416c0,0.208-0.156,0.416-0.26,0.676
			c-0.156,0.364-0.624,0.624-0.988,0.729C122.936,76.341,122.415,76.602,121.739,76.602z"/>
		<path fill="#D35400" d="M136.039,75.509c-0.624,0-1.144-0.052-1.976-0.364c-1.145-0.416-2.964-1.248-3.328-1.455
			c-1.04-0.572-2.028-1.873-2.601-3.589c-0.364-1.04-0.624-3.016-0.624-4.004c0-0.468,0.052-0.988,0.26-1.716
			c1.456-5.305,4.992-9.881,8.944-14.093c0.884-0.936,3.016-2.34,5.564-2.34c1.404,0,2.132,0.208,3.172,0.572
			c0.572,0.208,1.664,1.144,1.664,3.224c0,1.352-0.571,2.496-1.195,3.744c-0.521,1.04-0.937,1.612-1.664,2.444
			c-3.588,4.056-7.645,8.58-12.064,11.024c-0.26,0.156-0.312,0.26-0.312,0.416c0,0.832,0.78,1.924,1.248,2.184
			c0.572,0.312,1.092,0.416,1.612,0.416c0.884,0,1.664-0.208,4.004-1.456c3.588-1.924,5.772-4.731,8.893-6.708
			c0.572-0.364,0.832-0.364,1.04-0.364c0.312,0,1.04,0.521,1.04,1.04c0,0.469-0.052,0.521-0.052,0.676c0,0.209,0,0.521-0.26,0.729
			c-2.496,2.132-3.589,4.732-11.493,9.101C136.976,75.509,136.715,75.509,136.039,75.509z M142.748,51.744
			c0-0.416,0-0.624-0.312-0.624s-0.624,0.156-1.092,0.468c-0.572,0.364-0.521,0.208-1.04,0.676
			c-3.38,3.017-7.021,7.281-8.165,11.909c0,0.208,0.052,0.26,0.104,0.26c0.104,0,0.208-0.052,0.364-0.156
			c3.068-2.34,5.616-5.2,7.956-8.008c0.78-0.937,0.572-1.093,1.248-2.132C142.332,53.356,142.748,52.68,142.748,51.744z"/>
		<path fill="#D35400" d="M154.967,54.969c0,0.571-0.104,1.144-0.312,1.768c-0.156,0.624-0.208,0.729-0.208,0.832
			c0,0.156,0,0.208,0.156,0.208c0.052,0,0.26-0.052,0.676-0.416c2.859-2.185,5.355-3.64,7.229-4.265
			c0.155-0.052,0.468-0.104,0.623-0.104c1.457,0,2.912,0.416,3.797,1.456c0.208,0.208,0.363,0.572,0.363,0.884
			c0,1.612-1.403,2.288-1.819,2.288c-0.78,0-1.612-0.52-2.341-0.52c-0.155,0-0.363,0-0.832,0.208
			c-5.668,2.652-11.284,7.28-13.104,14.924c-0.364,1.561-0.937,2.236-1.301,2.496c-0.26,0.312-0.728,0.469-0.936,0.469
			c-0.832-0.053-1.196-0.676-1.561-1.092c-0.52-0.521-0.936-1.353-0.988-1.977c0-1.768,2.184-3.484,2.808-5.46
			c1.3-3.952,2.756-7.853,3.588-12.013c0.053-0.468,0.104-0.729,0.104-0.832c0-0.312-0.416-0.729-0.468-1.196
			c0-0.416,0.832-1.144,2.027-1.144c0.729,0,1.561,0.312,1.717,0.572C154.655,52.784,154.967,53.721,154.967,54.969z"/>
		<path fill="#D35400" d="M161.518,71.765c-0.104-0.571-0.156-1.144-0.156-1.768c0-2.393,1.093-4.784,2.236-7.749
			c2.236-5.824,6.864-14.144,10.816-20.904c0.885-1.508,1.196-4.42,3.225-4.42c0.728,0,1.144-0.104,1.716-0.104
			c0.521,0,1.092,0.208,1.353,0.572c0.312,0.468,0.416,0.936,0.416,1.456c0,0.676-0.209,1.3-0.521,1.82
			c-4.732,7.644-10.192,14.612-13.261,22.725c-0.832,2.132-1.976,4.108-1.976,6.396c0,0.624,0.052,1.248,0.26,1.924
			c0.156,0.468,0.572,0.624,1.04,0.624c0.312,0,0.624-0.052,0.884-0.208c2.288-1.404,4.837-5.824,7.229-5.824
			c0.416,0,1.769,0.364,1.769,1.196c0,0.676-0.521,0.884-1.041,1.456c-2.651,2.859-4.783,6.812-8.788,6.812
			C166.354,75.77,162.038,74.625,161.518,71.765z"/>
		<path fill="#D35400" d="M197.607,53.2c0.26,0,1.04,0.052,1.456,0.676c0.104,0.156,0.104,0.208,0.104,0.312
			c0,0.208-0.104,0.416-0.209,0.571c-2.287,3.121-5.044,7.021-6.031,11.025c-0.364,1.455-0.729,3.016-0.729,4.628
			c0,1.352,0.312,2.704,1.092,3.899c0.053,0.104,0.104,0.209,0.104,0.312s-0.208,0.624-1.093,0.729
			c-0.312,0.052-0.676,0.207-0.987,0.207c-0.78,0-1.925-0.363-2.236-1.039c-0.676-1.509-0.884-3.017-0.884-4.473
			c0-1.561,0.208-2.444,0.208-2.6c0-0.209,0-0.261-0.208-0.261s-0.676,0.364-1.248,0.937l-2.809,2.6
			c-2.704,2.549-4.368,3.276-6.188,3.9c-0.312,0.104-0.625,0.208-0.832,0.208c-0.572,0-1.196-0.364-3.641-2.34
			c-0.26-0.208-1.145-1.093-1.145-3.068c0-1.716,0.572-3.9,3.121-7.696c3.067-4.576,5.928-6.656,7.488-7.801
			c2.548-1.871,5.252-3.224,8.32-4.107c0.363-0.104,0.779-0.156,1.144-0.156c1.196,0,2.236,0.572,3.172,1.508
			c0.261,0.26,0.677,0.729,0.78,1.04C196.567,52.732,197.035,53.2,197.607,53.2z M191.419,53.408c-4.888,2.6-8.736,5.46-11.7,9.049
			c-2.184,2.651-3.9,5.72-3.9,7.228c0,0.624,0.208,1.404,1.145,1.404c0.416,0,1.611-0.572,2.548-1.456
			c4.836-4.524,10.296-8.008,12.948-12.948c0.364-0.677,0.937-1.404,1.508-1.977c0.156-0.155,0.261-0.468,0.261-0.78
			c0-0.363-0.312-1.039-1.196-1.039C192.875,52.889,192.096,53.044,191.419,53.408z"/>
		<path fill="#D35400" d="M208.006,52.68c0,0.416-0.26,0.988-1.04,1.509c-0.416,0.26-1.092,0.832-1.508,2.444
			c-1.196,4.628-3.38,9.724-3.9,13.52c-0.104,0.677-0.104,0.937-0.104,1.196c0,0.261,0.364,0.729,0.729,0.729
			c0.156,0,0.78-0.208,1.145-0.521c1.871-1.664,1.871-2.08,2.756-3.016c3.224-3.484,6.084-7.332,7.748-11.648
			c0.26-0.676,0.312-0.78,0.936-1.145c0.469-0.26,0.78-0.312,1.196-0.312s0.884,0.416,1.248,0.52c0.832,0.261,1.04,0.624,1.04,0.937
			c0,0.832-0.104,1.04-0.312,1.508c-1.769,3.796-3.173,7.645-3.796,11.752c-0.156,1.093-0.312,2.393-0.312,3.849
			c0,1.3,0.936,2.34,0.936,3.484c0,0.364-0.104,0.78-0.312,0.936c-0.156,0.104-0.416,0.156-0.728,0.156
			c-0.729,0-1.404-0.416-1.977-0.78c-0.988-0.624-0.988-0.208-1.3-0.988c-0.416-1.039-0.521-2.08-0.521-3.119
			c0-1.301,0.156-3.017,0.156-3.537c0-0.155-0.052-0.312-0.208-0.312c-0.208,0-0.521,0.364-0.728,0.624
			c-1.769,2.08-3.641,3.952-5.824,5.044c-0.416,0.208-0.469,0.208-0.677,0.208s-1.819-0.208-3.12-0.988
			c-0.936-0.571-1.456-1.092-1.56-1.611c-0.156-0.78-0.261-1.717-0.261-2.236c0-1.872,0.677-4.16,1.196-5.928
			c0.416-1.404,0.416-1.925,0.884-3.276c1.093-3.12,1.664-6.396,3.641-9.776c0.572-0.988,1.404-1.353,2.236-1.353
			c0.52,0,1.508,0.261,1.768,0.832C207.59,51.744,208.006,52.108,208.006,52.68z"/>
		<path fill="#D35400" d="M228.13,54.969c0,0.571-0.104,1.144-0.312,1.768c-0.155,0.624-0.208,0.729-0.208,0.832
			c0,0.156,0,0.208,0.156,0.208c0.052,0,0.26-0.052,0.676-0.416c2.86-2.185,5.356-3.64,7.229-4.265
			c0.156-0.052,0.468-0.104,0.624-0.104c1.456,0,2.912,0.416,3.796,1.456c0.208,0.208,0.364,0.572,0.364,0.884
			c0,1.612-1.404,2.288-1.82,2.288c-0.78,0-1.612-0.52-2.34-0.52c-0.156,0-0.364,0-0.832,0.208
			c-5.668,2.652-11.284,7.28-13.104,14.924c-0.364,1.561-0.936,2.236-1.3,2.496c-0.261,0.312-0.729,0.469-0.937,0.469
			c-0.832-0.053-1.195-0.676-1.56-1.092c-0.521-0.521-0.937-1.353-0.988-1.977c0-1.768,2.185-3.484,2.808-5.46
			c1.301-3.952,2.757-7.853,3.589-12.013c0.052-0.468,0.104-0.729,0.104-0.832c0-0.312-0.416-0.729-0.468-1.196
			c0-0.416,0.832-1.144,2.028-1.144c0.728,0,1.56,0.312,1.716,0.572C227.817,52.784,228.13,53.721,228.13,54.969z"/>
		<path fill="#D35400" d="M243.313,75.509c-0.624,0-1.144-0.052-1.976-0.364c-1.145-0.416-2.965-1.248-3.328-1.455
			c-1.04-0.572-2.028-1.873-2.601-3.589c-0.364-1.04-0.624-3.016-0.624-4.004c0-0.468,0.053-0.988,0.26-1.716
			c1.457-5.305,4.992-9.881,8.945-14.093c0.884-0.936,3.016-2.34,5.563-2.34c1.404,0,2.132,0.208,3.173,0.572
			c0.571,0.208,1.664,1.144,1.664,3.224c0,1.352-0.572,2.496-1.196,3.744c-0.521,1.04-0.937,1.612-1.664,2.444
			c-3.589,4.056-7.645,8.58-12.064,11.024c-0.261,0.156-0.312,0.26-0.312,0.416c0,0.832,0.78,1.924,1.248,2.184
			c0.572,0.312,1.093,0.416,1.612,0.416c0.884,0,1.664-0.208,4.004-1.456c3.588-1.924,5.772-4.731,8.893-6.708
			c0.572-0.364,0.832-0.364,1.04-0.364c0.312,0,1.04,0.521,1.04,1.04c0,0.469-0.052,0.521-0.052,0.676c0,0.209,0,0.521-0.261,0.729
			c-2.496,2.132-3.588,4.732-11.492,9.101C244.25,75.509,243.99,75.509,243.313,75.509z M250.021,51.744
			c0-0.416,0-0.624-0.312-0.624s-0.624,0.156-1.092,0.468c-0.572,0.364-0.521,0.208-1.04,0.676
			c-3.381,3.017-7.021,7.281-8.164,11.909c0,0.208,0.052,0.26,0.104,0.26c0.104,0,0.208-0.052,0.364-0.156
			c3.067-2.34,5.616-5.2,7.956-8.008c0.78-0.937,0.572-1.093,1.248-2.132C249.605,53.356,250.021,52.68,250.021,51.744z"/>
		<path fill="#D35400" d="M260.838,51.432c0.416-0.623,0.364-0.728,0.832-1.144c0.416-0.364,1.04-0.52,1.82-0.52
			c1.195,0,1.872,0.312,2.08,0.78c0.104,0.261,0.26,0.677,0.26,0.937c0,0.572-0.26,1.508-1.145,2.443
			c-0.571,0.625-2.027,2.289-3.328,4.681c-0.728,1.353-1.976,3.849-3.691,8.112c-0.364,0.936-1.04,3.484-1.04,3.641
			c0,0.207,0,0.52,0.155,0.52c0.312,0,0.521-0.156,0.885-0.676c7.02-9.984,10.868-12.064,12.012-14.509
			c0.937-1.976,1.145-2.132,1.82-2.132c0.78,0,1.04,0.468,1.872,0.52c0.572,0.053,1.04,0.78,1.04,1.404
			c0,0.208-0.26,0.936-0.52,1.352c-1.872,3.068-2.86,5.045-3.641,7.697c-0.312,1.039-0.624,3.64-0.624,4.68
			c0,0.936,0.312,1.716,0.416,2.236c0.156,0.936,1.456,1.611,1.82,1.872c0.416,0.312,0.78,0.676,0.78,1.196
			c0,0.363-0.364,1.248-1.353,1.248c-0.416,0-2.08-0.156-2.704-0.729c-0.728-0.676-1.352-0.884-2.027-1.82
			c-0.625-0.832-0.885-1.924-0.885-3.224c0-3.068,0.469-3.952,0.469-4.108c0-0.104-0.053-0.208-0.156-0.208
			c-0.104,0-0.156,0-0.312,0.208c-2.132,2.809-3.536,4.576-4.784,6.344c-1.092,1.561-1.508,1.509-2.235,2.289
			c-0.416,0.468-1.457,0.571-1.925,0.571c-0.624,0-3.067-1.56-3.744-2.392c-0.208-0.26-0.364-0.937-0.364-1.508
			c0-1.612,0.469-1.977,0.625-3.121c0.207-1.508,1.664-5.044,2.548-7.072C257.354,57.412,258.55,54.916,260.838,51.432z"/>
	</g>
	<polygon fill="#2D473B" points="92.527,49.039 92.422,49.291 92.317,49.545 92.235,49.899 92.152,50.257 92.046,50.566 
		91.939,50.878 91.859,51.232 91.781,51.589 91.722,51.839 91.661,52.089 91.581,52.46 91.502,52.834 91.434,53.084 91.364,53.334 
		91.356,53.558 91.348,53.783 91.434,54.023 91.521,54.267 91.624,54.457 91.728,54.647 91.865,54.785 92.003,54.924 92.177,55.035 
		92.35,55.147 92.548,55.088 92.747,55.025 92.877,54.982 93.006,54.94 93.127,54.933 93.248,54.924 93.42,54.871 93.594,54.818 
		93.741,54.654 93.887,54.492 93.957,54.224 94.026,53.955 94.069,53.576 94.112,53.195 94.155,52.884 94.199,52.572 94.242,52.312 
		94.285,52.054 94.319,51.796 94.354,51.537 94.397,51.33 94.44,51.12 94.527,50.939 94.613,50.759 94.665,50.611 94.716,50.466 
		94.769,50.318 94.821,50.171 94.647,50.085 94.475,49.997 94.311,49.878 94.146,49.757 94,49.626 93.853,49.498 93.698,49.35 
		93.542,49.203 93.43,49.058 93.317,48.91 93.24,48.772 93.161,48.634 93.102,48.495 93.041,48.357 92.989,48.235 92.938,48.115 
		92.92,48.02 92.903,47.925 92.842,48.08 92.782,48.235 92.654,48.639 	"/>
</g>
</svg>
