<?xml version="1.0" encoding="utf-8"?>
<!-- Generator: Adobe Illustrator 16.0.4, SVG Export Plug-In . SVG Version: 6.00 Build 0)  -->
<!DOCTYPE svg PUBLIC "-//W3C//DTD SVG 1.1//EN" "http://www.w3.org/Graphics/SVG/1.1/DTD/svg11.dtd">
<svg version="1.1" id="Layer_1" xmlns="http://www.w3.org/2000/svg" xmlns:xlink="http://www.w3.org/1999/xlink" x="0px" y="0px"
	 width="300px" height="300px" viewBox="0 0 300 300" enable-background="new 0 0 300 300" xml:space="preserve">
<g id="Layer_1_1_">
	<rect fill="#EEEEEE" width="300" height="300"/>
</g>
<g id="Layer_3">
	
		<ellipse fill="#EEEEEE" stroke="#D35400" stroke-width="7.9374" stroke-miterlimit="10" cx="150" cy="150.075" rx="145" ry="138.729"/>
	<g>
		<polygon fill="#006731" points="187.014,238.236 187.85,239.387 188.479,240.434 189.105,241.48 190.988,241.375 192.452,241.48 
			193.919,242.003 195.697,242.107 196.534,241.27 196.117,240.016 194.546,238.551 193.082,237.714 191.406,237.398 
			189.837,237.609 188.479,237.714 		"/>
		<polygon fill="#B6C5BE" points="155.516,221.391 156.062,222.096 156.615,222.803 156.968,223.572 157.32,224.346 
			157.575,225.279 157.831,226.215 158.039,226.999 158.244,227.777 158.557,228.668 158.863,229.55 159.021,230.23 
			159.178,230.912 159.492,231.747 159.807,232.584 160.225,233.214 160.643,233.841 161.113,234.363 161.583,234.889 
			162.213,235.464 162.842,236.038 163.988,236.145 165.143,236.247 166.188,236.3 167.234,236.352 168.491,236.247 
			169.747,236.145 171.002,236.3 172.259,236.457 173.984,236.404 175.711,236.352 177.438,236.195 179.165,236.038 
			180.001,236.195 180.838,236.352 182.042,236.509 183.245,236.667 184.029,237.188 184.814,237.714 185.495,238.339 
			186.175,238.969 186.594,239.544 187.014,240.119 187.38,241.061 187.745,242.003 187.693,242.84 187.641,243.678 187.221,244.41 
			186.805,245.145 186.122,245.611 185.441,246.084 184.502,246.713 183.561,247.341 182.303,247.498 181.047,247.652 
			179.688,247.708 178.327,247.758 176.704,247.708 175.084,247.652 173.355,247.826 171.631,248 169.956,248 168.281,248 
			166.659,248 165.039,248 163.782,248 162.525,248 160.904,247.355 159.281,246.93 158.079,246.664 156.876,246.454 
			156.303,246.372 155.725,246.307 156.145,245.777 156.562,245.251 156.719,244.255 156.876,243.258 156.615,242.37 
			156.352,241.48 155.83,240.434 155.307,239.387 154.312,238.496 153.318,237.609 152.428,237.086 151.538,236.561 
			150.545,236.145 149.551,235.727 148.871,235.516 148.19,235.307 147.824,234.051 147.458,232.795 146.935,231.225 
			146.412,229.656 146.15,228.715 145.889,227.771 145.47,226.518 145.051,225.262 144.58,223.85 144.109,222.436 143.586,221.335 
			143.063,220.238 142.906,219.504 142.749,218.773 142.645,217.516 142.54,216.262 143.063,216.837 143.586,217.412 
			144.266,217.988 144.946,218.562 145.783,219.088 146.621,219.609 147.615,220.132 148.609,220.656 149.394,220.918 
			150.179,221.18 150.962,221.441 151.748,221.703 152.689,221.807 153.634,221.911 154.572,221.65 		"/>
		<polygon fill="#2A5E3E" points="147.04,217.725 146.202,217.047 145.365,216.365 144.476,215.527 143.586,214.691 
			142.958,213.904 142.331,213.122 142.017,212.18 141.703,211.238 142.069,210.035 142.435,208.833 143.743,207.367 
			145.051,205.902 146.569,204.541 148.085,203.18 149.446,202.135 150.807,201.088 151.958,200.096 153.109,199.102 
			154.521,198.211 155.936,197.32 157.292,196.589 158.652,195.855 159.753,195.333 160.854,194.811 162.423,194.234 
			163.988,193.659 165.039,193.605 166.084,193.555 166.764,193.764 167.445,193.973 167.863,194.337 168.281,194.706 
			168.544,195.02 168.805,195.333 168.962,195.805 169.119,196.273 168.962,196.9 168.805,197.529 168.544,198.211 168.281,198.891 
			167.917,199.57 167.549,200.253 167.287,200.878 167.025,201.507 166.764,202.346 166.503,203.18 166.084,204.229 
			165.665,205.273 165.039,206.373 164.41,207.471 163.988,208.414 163.572,209.355 162.893,210.453 162.213,211.553 
			161.479,212.441 160.748,213.331 160.12,214.221 159.492,215.109 158.604,216.104 157.713,217.1 156.771,217.831 155.83,218.562 
			155.146,219.035 154.469,219.504 153.686,219.715 152.898,219.923 151.593,219.662 150.283,219.4 149.446,218.93 148.609,218.458 
			147.824,218.092 		"/>
		<polygon fill="#2A5E3E" points="119.1,209.564 118.42,208.518 117.739,207.471 117.688,206.111 117.635,204.751 118.315,203.023 
			118.995,201.297 119.885,199.832 120.775,198.367 121.663,197.163 122.553,195.96 123.547,194.706 124.542,193.449 
			125.64,192.089 126.739,190.729 127.786,189.212 128.832,187.693 129.564,186.543 130.297,185.393 130.715,183.926 
			131.134,182.462 132.181,180.997 133.227,179.531 134.064,178.486 134.901,177.438 136.157,176.705 137.413,175.977 
			138.825,175.555 140.237,175.137 141.65,175.502 143.063,175.871 144.633,176.915 146.202,177.963 147.458,178.803 
			148.713,179.637 149.76,180.632 150.807,181.625 151.854,182.881 152.898,184.137 153.841,185.443 154.782,186.751 
			155.307,188.165 155.83,189.577 156.091,190.99 156.352,192.402 156.039,193.396 155.725,194.393 155.307,194.966 
			154.889,195.543 153.841,196.118 152.794,196.691 151.593,197.792 150.388,198.891 149.027,199.99 147.667,201.088 
			145.993,202.449 144.318,203.811 143.063,204.646 141.807,205.482 140.551,206.426 139.295,207.367 138.092,208.047 
			136.889,208.729 135.791,209.355 134.692,209.98 133.437,210.611 132.181,211.238 130.925,211.866 129.669,212.494 
			128.36,212.546 127.053,212.6 125.588,212.652 124.123,212.703 122.867,212.023 121.611,211.344 120.355,210.453 		"/>
		<polygon fill="#557F36" points="58.304,198.156 60.658,197.373 63.012,196.589 64.634,196.118 66.256,195.646 68.035,195.02 
			69.813,194.393 72.117,193.711 74.418,193.031 76.197,192.352 77.976,191.67 80.017,191.042 82.057,190.415 84.568,189.37 
			87.08,188.32 89.12,187.434 91.162,186.543 93.672,185.652 96.184,184.766 98.277,184.137 100.369,183.51 103.09,182.723 
			105.811,181.938 107.903,181.311 109.997,180.684 112.141,179.951 114.287,179.219 115.856,178.538 117.426,177.857 
			118.892,177.438 120.355,177.02 122.083,176.76 123.809,176.498 125.64,175.818 127.471,175.137 129.199,174.719 130.925,174.298 
			132.599,173.883 134.273,173.462 135.477,172.992 136.68,172.521 138.04,172.102 139.401,171.684 141.023,171.37 142.645,171.057 
			144.685,170.587 146.726,170.113 147.876,169.695 149.027,169.275 150.23,168.859 151.436,168.439 153.214,167.812 
			154.992,167.186 156.876,166.559 158.759,165.93 161.009,164.83 163.26,163.73 165.039,162.686 166.816,161.639 168.439,160.75 
			170.062,159.859 171.943,158.656 173.828,157.452 175.869,155.986 177.908,154.521 179.635,153.057 181.359,151.592 
			182.723,149.656 184.083,147.722 185.232,145.89 186.387,144.059 186.908,142.333 187.432,140.606 187.693,138.408 
			187.954,136.211 187.273,134.432 186.594,132.653 185.391,130.613 184.188,128.572 182.408,126.897 180.629,125.223 
			178.486,123.706 176.339,122.189 173.672,120.463 171.002,118.735 169.172,117.898 167.34,117.062 165.248,116.015 
			163.154,114.969 161.113,114.341 159.072,113.713 157.033,113.347 154.992,112.98 153.057,112.667 151.12,112.353 
			148.453,111.829 145.783,111.306 142.854,111.045 139.924,110.782 137.883,111.149 135.843,111.515 132.756,112.3 
			129.669,113.085 127.262,114.183 124.855,115.283 123.547,116.067 122.239,116.853 119.937,117.793 117.635,118.735 
			114.862,120.463 112.089,122.189 110.049,123.706 108.008,125.223 105.758,126.793 103.508,128.362 101.887,130.036 
			100.265,131.711 97.962,133.699 95.66,135.688 93.934,137.415 92.208,139.141 90.22,141.233 88.23,143.327 86.348,145.262 
			84.464,147.198 83,149.135 81.534,151.072 80.644,152.273 79.755,153.479 78.552,154.682 77.348,155.883 76.197,157.506 
			75.045,159.128 74.156,160.645 73.268,162.162 72.221,163.941 71.175,165.721 70.232,166.922 69.291,168.126 67.616,170.535 
			65.942,172.939 64.948,174.719 63.955,176.498 63.17,178.225 62.385,179.951 61.233,181.887 60.083,183.822 59.192,185.55 
			58.304,187.275 57.362,188.949 56.42,190.624 55.321,192.037 54.223,193.449 53.281,194.915 52.339,196.379 51.606,197.637 
			50.874,198.891 50.56,199.623 50.246,200.354 50.56,200.669 50.874,200.982 51.711,200.669 52.548,200.354 53.229,200.043 
			53.908,199.729 54.746,199.361 55.583,198.995 56.943,198.577 		"/>
		<polygon fill="#2D473B" points="74.13,204.174 73.496,205.707 72.861,207.234 72.364,209.389 71.861,211.537 71.22,213.424 
			70.573,215.312 70.096,217.459 69.618,219.609 69.251,221.127 68.879,222.646 68.408,224.896 67.929,227.145 67.512,228.662 
			67.094,230.18 67.041,231.538 66.989,232.9 67.512,234.363 68.035,235.83 68.664,236.98 69.291,238.133 70.128,238.969 
			70.965,239.805 72.012,240.486 73.058,241.165 74.262,240.8 75.465,240.434 76.249,240.172 77.034,239.911 77.767,239.857 
			78.499,239.805 79.545,239.492 80.593,239.178 81.482,238.184 82.371,237.188 82.79,235.566 83.208,233.945 83.47,231.643 
			83.731,229.344 83.994,227.458 84.255,225.575 84.516,224.005 84.777,222.436 84.987,220.866 85.197,219.295 85.458,218.04 
			85.72,216.784 86.242,215.686 86.766,214.586 87.08,213.697 87.394,212.809 87.708,211.917 88.022,211.029 86.976,210.506 
			85.928,209.98 84.935,209.25 83.94,208.518 83.051,207.732 82.162,206.947 81.22,206.059 80.279,205.167 79.599,204.279 
			78.917,203.391 78.447,202.553 77.976,201.716 77.61,200.878 77.244,200.043 76.93,199.311 76.616,198.577 76.511,198.002 
			76.406,197.426 76.04,198.367 75.674,199.311 74.901,201.743 		"/>
		<polygon fill="#9CB78A" points="79.545,194.915 79.336,195.699 79.127,196.484 79.285,197.529 79.441,198.577 79.859,199.467 
			80.279,200.354 80.906,201.297 81.534,202.238 82.58,203.547 83.627,204.855 84.568,205.588 85.51,206.318 86.505,207.001 
			87.499,207.682 88.44,208.15 89.381,208.623 90.584,208.884 91.789,209.146 93.306,208.986 94.823,208.833 96.602,208.675 
			98.381,208.518 99.793,208.15 101.206,207.786 102.463,207.575 103.718,207.367 105.288,207.156 106.857,206.947 107.851,206.581 
			108.845,206.217 109.997,205.954 111.147,205.691 111.932,205.225 112.717,204.751 113.659,204.174 114.601,203.6 
			114.967,203.076 115.333,202.553 115.751,201.456 116.171,200.354 116.694,199.311 117.216,198.264 118.053,197.163 
			118.892,196.062 119.78,194.811 120.669,193.555 121.559,192.561 122.449,191.564 123.286,190.676 124.123,189.787 
			124.855,188.74 125.588,187.693 126.268,186.7 126.948,185.706 127.524,184.557 128.1,183.404 128.413,182.566 128.728,181.729 
			129.041,181.048 129.355,180.369 129.773,179.584 130.193,178.803 130.454,178.275 130.715,177.754 129.46,178.118 
			128.204,178.486 126.896,178.902 125.588,179.32 124.07,179.795 122.553,180.266 120.879,180.579 119.205,180.893 
			118.002,181.415 116.797,181.938 115.438,182.462 114.078,182.984 112.822,183.247 111.566,183.51 110.258,184.031 
			108.95,184.557 106.909,185.234 104.869,185.915 102.776,186.491 100.683,187.066 99.009,187.536 97.335,188.009 96.028,188.375 
			94.719,188.74 93.201,189.314 91.684,189.893 90.48,190.415 89.277,190.938 87.865,191.564 86.452,192.193 85.249,192.822 
			84.045,193.449 82.686,193.92 81.325,194.393 80.435,194.654 		"/>
		<polyline fill="#B6C5BE" points="130.355,231.866 130.284,231.77 130.218,231.67 129.872,230.303 129.255,228.938 129,227.42 
			129,225.895 129.466,224.691 129.783,223.48 130.154,222.173 130.49,220.866 130.662,219.715 130.826,218.562 130.976,217.885 
			131.141,217.201 130.931,216.627 130.715,216.053 130.245,215.425 129.773,214.795 129.199,214.534 128.623,214.273 
			127.786,214.326 126.948,214.379 125.954,214.482 124.96,214.586 124.07,214.379 123.182,214.169 122.292,213.904 
			121.402,213.646 120.931,213.279 120.46,212.912 119.885,212.652 119.31,212.389 118.892,212.755 118.472,213.122 
			118.315,213.854 118.158,214.586 118.315,215.477 118.472,216.365 118.734,217.15 118.995,217.938 119.31,218.825 
			119.624,219.715 119.885,220.762 120.146,221.807 120.304,222.594 120.46,223.376 120.408,224.371 120.355,225.363 
			120.251,226.359 120.146,227.354 119.989,228.398 119.833,229.445 119.624,230.598 119.414,231.747 119.31,232.531 
			119.205,233.318 119.048,234.051 118.892,234.783 118.786,235.464 118.682,236.145 118.629,236.721 118.578,237.295 
			118.263,237.714 117.949,238.133 117.479,238.393 117.008,238.654 116.118,238.76 115.228,238.863 114.182,238.969 
			113.136,239.074 112.036,239.126 110.938,239.178 109.629,239.23 108.321,239.283 106.543,239.178 104.764,239.074 
			103.979,239.23 103.195,239.387 102.567,239.753 101.939,240.119 101.311,240.8 100.683,241.48 100.527,242.003 100.369,242.527 
			100.422,243.206 100.474,243.887 100.893,244.461 101.311,245.038 101.939,245.611 102.567,246.188 103.351,246.764 
			104.137,247.341 105.078,247.652 106.02,247.969 107.066,248.125 108.112,248.281 109.421,248.336 110.729,248.385 
			111.932,248.438 113.136,248.491 114.129,248.438 115.124,248.385 118.786,248.438 122.449,248.491 124.646,248.543 
			126.844,248.594 128.674,248.438 130.506,248.281 131.71,248.178 132.914,248.07 134.377,248.229 135.843,248.385 
			137.413,248.125 138.981,248.178 140.343,247.969 141.493,247.861 143.167,247.6 144.633,247.55 146.935,247.443 149.132,247.236 
			150.545,246.949 151.958,246.882 152.689,246.432 153.424,245.967 154.104,245.137 154.782,244.307 154.939,243.152 
			155.098,242.003 154.154,240.956 153.527,239.911 152.898,238.969 151.436,238.027 150.441,237.66 149.446,237.295 
			148.242,237.086 147.04,236.876 145.993,236.822 144.946,236.771 143.743,236.613 142.54,236.457 141.232,236.404 
			139.924,236.352 138.668,236.195 137.413,236.038 136.471,235.934 135.529,235.83 134.953,235.777 134.377,235.727 
			133.279,235.566 132.181,235.41 131.762,234.783 131.343,234.154 130.925,233.525 130.506,232.9 		"/>
		<polygon fill="#006731" points="99.533,240.119 99.218,240.695 98.904,241.27 98.695,241.951 98.485,242.631 98.591,243.152 
			98.695,243.678 98.799,244.148 98.904,244.617 98.172,244.516 97.44,244.41 96.812,244.098 96.184,243.781 95.452,243.572 
			94.719,243.363 93.934,243.469 93.149,243.572 92.417,243.835 91.684,244.098 90.848,244.547 90.01,245 89.539,245 89.067,245 
			88.649,244.391 88.23,243.904 88.597,243.268 88.964,242.659 89.644,242.123 90.324,241.592 91.266,240.962 92.208,240.33 
			93.097,239.962 93.986,239.598 94.876,239.544 95.765,239.492 96.55,239.439 97.335,239.387 98.434,239.753 		"/>
		<polygon fill="#9CB78A" points="145.365,174.092 146.202,174.611 147.04,175.137 147.929,175.818 148.818,176.498 
			149.655,177.125 150.492,177.754 151.12,178.381 151.748,179.008 152.534,179.846 153.318,180.684 153.945,181.363 
			154.572,182.043 155.253,182.934 155.936,183.822 156.459,184.712 156.979,185.604 157.45,186.387 157.923,187.171 
			158.132,188.061 158.341,188.949 158.549,189.63 158.759,190.311 158.916,191.096 159.072,191.88 158.967,192.664 
			158.863,193.449 159.701,193.189 160.537,192.928 161.221,192.664 161.898,192.402 162.577,192.245 163.26,192.089 
			164.148,191.88 165.039,191.67 165.875,191.618 166.711,191.564 167.498,191.932 168.281,192.299 168.857,192.719 
			169.436,193.134 170.428,193.031 171.42,192.928 172.363,192.822 173.305,192.719 174.352,192.299 175.396,191.88 
			176.443,191.461 177.49,191.042 178.537,190.624 179.583,190.207 180.682,189.682 181.781,189.159 182.825,188.635 
			183.874,188.113 185.18,187.171 186.49,186.229 187.693,185.55 188.896,184.867 190.152,183.979 191.406,183.09 192.716,182.41 
			194.025,181.729 195.593,180.369 197.162,179.008 198.575,177.807 199.986,176.602 201.244,175.45 202.498,174.298 
			203.493,173.202 204.486,172.102 205.639,171.004 206.789,169.904 207.941,168.701 209.091,167.498 210.294,166.189 
			211.498,164.882 212.492,163.626 213.486,162.371 214.324,161.012 215.16,159.648 215.893,158.5 216.626,157.35 217.725,155.727 
			218.822,154.105 219.348,152.953 219.869,151.803 220.34,150.65 220.811,149.501 221.334,147.616 221.857,145.733 
			222.173,144.372 222.484,143.012 222.852,141.547 223.218,140.083 223.428,138.618 223.637,137.152 223.848,135.949 
			224.057,134.746 224.212,133.542 224.371,132.339 223.167,131.763 221.963,131.188 220.863,130.508 219.766,129.827 
			218.822,129.147 217.88,128.467 216.73,127.787 215.579,127.107 214.219,126.217 212.857,125.328 212.021,124.596 
			211.186,123.863 210.085,122.87 208.986,121.875 208.098,121.09 207.209,120.305 206.475,119.521 205.744,118.735 
			205.116,118.056 204.486,117.375 203.755,116.59 203.021,115.806 202.447,116.328 201.87,116.853 200.877,117.48 199.883,118.108 
			198.941,118.683 198,119.259 196.9,119.782 195.803,120.305 194.495,120.619 193.188,120.933 192.089,120.986 190.988,121.038 
			189.891,120.671 188.791,120.305 187.641,119.468 186.49,118.631 185.705,117.637 184.921,116.643 184.502,115.806 
			184.083,114.969 183.716,113.975 183.35,112.98 183.089,112.091 182.825,111.201 182.723,110.312 182.617,109.422 
			182.355,108.533 182.096,107.643 180.314,107.749 178.537,107.853 177.438,107.905 176.339,107.958 175.137,107.853 
			173.934,107.749 172.52,107.643 171.105,107.539 169.436,107.33 167.759,107.121 166.032,106.649 164.305,106.178 
			162.943,105.551 161.583,104.923 160.17,104.243 158.759,103.562 157.607,102.726 156.459,101.888 155.201,101.312 
			153.945,100.738 152.951,100.057 151.958,99.377 150.962,100.214 149.969,101.051 148.976,102.151 147.981,103.249 
			147.405,104.086 146.831,104.923 146.045,105.708 145.26,106.493 144.685,107.121 144.109,107.749 145.47,107.958 
			146.831,108.167 148.609,108.429 150.388,108.69 152.113,109.004 153.841,109.317 155.253,109.579 156.665,109.841 
			158.079,110.155 159.492,110.469 160.955,110.887 162.423,111.306 164.098,111.986 165.77,112.667 167.34,113.347 168.91,114.027 
			170.375,114.759 171.84,115.492 173.355,116.382 174.874,117.271 176.391,118.212 177.908,119.154 179.216,119.992 
			180.523,120.829 181.623,121.665 182.723,122.502 183.874,123.339 185.023,124.177 185.966,125.171 186.908,126.165 
			187.641,127.264 188.373,128.362 189,129.566 189.628,130.769 190.152,132.078 190.676,133.385 190.936,135.112 191.199,136.838 
			191.094,138.827 190.988,140.815 190.465,142.28 189.941,143.746 189.314,145.262 188.688,146.779 187.797,148.243 
			186.908,149.709 185.809,151.279 184.71,152.85 183.561,154.208 182.408,155.57 180.943,156.512 179.479,157.452 178.014,158.709 
			176.548,159.963 175.137,160.906 173.723,161.85 172.049,162.842 170.375,163.837 169.014,164.619 167.654,165.404 
			166.293,166.084 164.934,166.768 163.312,167.55 161.688,168.336 160.016,169.016 158.341,169.695 156.404,170.271 
			154.469,170.848 152.689,171.527 150.91,172.207 149.446,172.68 147.981,173.148 146.673,173.619 		"/>
		<polygon fill="#557F36" points="186.371,99.796 187.367,99.142 188.367,98.487 189.568,98.03 190.771,97.575 191.818,97.291 
			192.872,97.009 193.866,96.79 194.859,96.571 195.908,96.512 196.954,96.457 197.635,96.715 198.314,96.977 198.994,97.288 
			199.673,97.598 200.512,98.278 201.35,98.958 202.027,99.69 202.71,100.424 203.072,101.312 203.441,102.203 203.809,103.196 
			204.174,104.19 204.592,105.289 205.01,106.388 205.271,107.277 205.535,108.167 205.689,108.951 205.848,109.737 
			205.744,110.678 205.639,111.62 205.377,112.247 205.116,112.876 204.906,113.347 204.697,113.817 205.48,114.707 
			206.266,115.596 207.053,116.382 207.836,117.167 208.777,118.108 209.721,119.05 210.818,120.096 211.916,121.142 
			213.066,122.032 214.219,122.921 215.316,123.706 216.417,124.491 217.411,125.171 218.404,125.851 219.502,126.531 
			220.604,127.211 221.596,127.944 222.591,128.677 223.848,129.2 225.102,129.723 226.462,130.089 227.824,130.455 
			229.025,130.246 230.229,130.036 231.275,129.566 232.32,129.095 233.63,128.206 234.938,127.316 235.984,126.635 
			237.031,125.956 237.816,125.119 238.602,124.281 239.646,123.078 240.693,121.875 241.689,120.671 242.684,119.468 
			243.257,118.369 243.834,117.271 244.723,115.649 245.611,114.027 246.292,112.823 246.971,111.62 247.6,109.893 248.229,108.167 
			248.727,106.649 249.223,105.132 249.613,103.51 250,101.888 250,100.842 250,99.796 250,99.796 250,99.796 249.848,98.645 
			249.797,97.494 249.482,96.238 249.193,94.982 248.656,93.413 248.129,91.843 247.498,90.639 246.869,89.436 246.238,88.337 
			245.611,87.239 244.671,86.192 243.729,85.146 242.734,83.942 241.74,82.739 240.38,81.588 239.02,80.437 237.764,79.39 
			236.508,78.344 235.462,77.664 234.416,76.984 233.159,76.251 231.902,75.519 230.438,74.996 228.975,74.473 227.561,74.158 
			226.148,73.844 224.684,73.426 223.218,73.007 221.754,72.902 220.289,72.797 218.875,72.746 217.463,72.693 216.365,72.746 
			215.268,72.797 214.113,72.399 212.965,72 212.021,72 211.08,72 210.242,72 209.406,72 208.62,72 207.836,72 206.945,71.823 
			206.059,71.474 205.168,70.409 204.277,69.301 203.648,68.277 203.021,67.242 202.027,65.992 201.033,64.738 200.04,63.745 
			199.045,62.752 198.051,62.02 197.059,61.287 195.855,60.451 194.65,59.613 193.134,58.933 191.616,58.253 189.785,57.678 
			187.954,57.102 186.646,56.788 185.338,56.474 183.455,56.317 181.57,56.16 180.105,56.108 178.641,56.055 177.072,56.16 
			175.502,56.265 173.984,56.474 172.468,56.683 171.057,56.945 169.643,57.206 168.281,57.467 166.921,57.729 165.613,58.148 
			164.305,58.567 163.05,59.038 161.794,59.508 160.643,60.136 159.492,60.764 158.445,61.497 157.4,62.229 156.145,63.275 
			154.889,64.322 153.945,65.265 153.005,66.206 152.113,67.408 151.225,68.612 150.702,69.711 150.179,70.81 149.76,71.908 
			149.342,73.007 148.922,74.42 148.504,75.833 148.295,77.193 148.085,78.553 147.929,80.071 147.772,81.588 147.719,83.105 
			147.667,84.623 147.772,86.14 147.876,87.657 148.348,89.54 148.818,91.424 149.394,92.575 149.969,93.727 150.755,94.668 
			151.538,95.61 152.376,96.342 153.214,97.075 154.104,97.703 154.992,98.331 156.248,98.906 157.503,99.482 158.498,100.214 
			159.492,100.947 160.904,101.627 162.316,102.307 163.468,102.83 164.62,103.354 165.875,103.771 167.131,104.19 168.596,104.557 
			170.062,104.923 171.475,105.132 172.887,105.341 174.352,105.394 175.814,105.446 176.861,105.341 177.908,105.237 
			178.902,105.184 179.896,105.132 180.732,105.08 181.57,105.028 181.887,104.923 182.197,104.818 182.564,103.929 182.934,103.04 
			183.507,102.359 184.083,101.68 184.555,101.104 185.023,100.528 185.697,100.161 		"/>
		<polygon fill="#2D473B" points="189.837,117.898 189,117.323 188.164,116.748 187.38,115.701 186.594,114.654 186.122,113.347 
			185.65,112.039 185.441,110.835 185.232,109.632 184.921,108.585 184.605,107.539 184.868,106.23 185.128,104.923 
			185.705,103.929 186.279,102.935 187.273,102.255 188.27,101.574 189.471,100.947 190.676,100.319 192.191,99.953 193.711,99.586 
			195.123,99.325 196.534,99.062 197.686,99.534 198.838,100.005 199.465,100.738 200.092,101.469 200.562,102.463 201.033,103.458 
			201.506,104.504 201.977,105.551 202.344,106.545 202.71,107.539 202.919,108.429 203.128,109.317 203.072,110.05 
			203.021,110.782 202.863,111.463 202.71,112.144 202.238,112.823 201.768,113.503 201.191,113.975 200.616,114.446 
			199.831,115.073 199.045,115.701 197.896,116.382 196.743,117.062 195.96,117.427 195.174,117.793 194.182,118.16 
			193.188,118.527 192.089,118.421 190.988,118.317 190.413,118.108 		"/>
		<polygon fill="#B6C5BE" points="205.639,99.272 205.43,98.173 205.221,97.075 205.062,96.134 204.906,95.191 204.958,94.197 
			205.01,93.203 205.221,92.156 205.43,91.11 205.639,90.117 205.848,89.123 206.215,87.971 206.58,86.82 207.104,85.93 
			207.627,85.041 208.098,84.309 208.568,83.577 209.146,82.949 209.721,82.32 210.398,81.588 211.08,80.855 211.971,80.332 
			212.857,79.809 213.854,79.287 214.848,78.763 215.945,78.605 217.044,78.448 218.562,78.135 220.08,77.821 221.439,77.716 
			222.799,77.611 224.057,77.769 225.311,77.925 226.775,78.239 228.241,78.553 229.443,78.867 230.648,79.181 231.536,79.704 
			232.428,80.228 233.525,80.803 234.624,81.378 235.252,81.954 235.879,82.529 236.77,83.158 237.658,83.785 238.232,84.518 
			238.812,85.25 239.332,86.035 239.857,86.82 240.327,87.604 240.799,88.39 241.163,89.331 241.531,90.272 241.846,91.163 
			242.158,92.051 242.314,92.837 242.473,93.622 242.525,94.563 242.577,95.505 242.525,96.238 242.473,96.97 242.158,98.017 
			241.846,99.062 241.373,100.109 240.902,101.156 240.275,101.993 239.646,102.83 239.176,103.51 238.705,104.19 238.077,104.975 
			237.449,105.76 236.456,106.388 235.462,107.017 234.624,107.539 233.787,108.062 232.794,108.585 231.8,109.108 230.648,109.527 
			229.497,109.946 228.605,110.26 227.718,110.574 226.725,110.887 225.729,111.201 224.841,111.411 223.951,111.62 
			223.113,111.776 222.275,111.934 221.021,111.776 219.766,111.62 218.249,110.992 216.73,110.364 215.477,109.841 
			214.219,109.317 213.016,108.69 211.812,108.062 210.977,107.539 210.141,107.017 208.936,105.655 207.73,104.295 207.26,103.615 
			206.789,102.935 206.475,101.941 206.162,100.947 205.898,100.109 		"/>
		<polygon fill="#B6C5BE" points="196.639,81.065 196.743,79.861 196.85,78.658 196.639,77.35 196.432,76.042 195.96,74.786 
			195.488,73.53 194.809,72.223 194.13,70.914 193.082,69.815 192.035,68.717 190.885,67.775 189.732,66.833 188.479,66.206 
			187.221,65.578 185.809,64.897 184.396,64.217 182.723,63.746 181.047,63.275 179.635,63.171 178.223,63.067 176.758,63.275 
			175.292,63.485 174.088,63.956 172.887,64.427 171.578,65.107 170.27,65.787 169.486,66.624 168.699,67.461 167.759,68.507 
			166.816,69.554 165.928,70.914 165.039,72.275 164.355,73.374 163.678,74.473 163.312,75.78 162.943,77.089 162.736,78.396 
			162.525,79.704 162.684,80.96 162.842,82.215 163.102,83.158 163.361,84.1 163.887,85.198 164.41,86.297 165.039,87.396 
			165.665,88.494 166.452,89.383 167.234,90.272 167.969,91.006 168.699,91.737 169.381,92.261 170.062,92.784 170.898,93.256 
			171.734,93.727 172.834,94.25 173.934,94.773 175.137,95.034 176.339,95.296 177.646,95.453 178.955,95.61 180.523,95.505 
			182.096,95.401 182.984,95.244 183.874,95.087 185.023,94.825 186.175,94.563 187.014,94.302 187.85,94.04 188.947,93.518 
			190.046,92.994 190.988,92.261 191.93,91.529 192.611,90.587 193.291,89.645 193.814,88.704 194.338,87.762 194.859,86.663 
			195.384,85.564 195.749,84.414 196.117,83.263 196.377,82.163 		"/>
		<polygon fill="#596C55" points="172.678,88.075 174.247,89.331 176.548,90.482 179.793,91.11 182.825,91.006 185.758,89.75 
			188.164,88.285 190.257,86.297 192.35,83.577 192.872,80.646 192.662,77.402 191.514,74.682 189.941,72.484 187.954,70.6 
			185.023,69.136 181.99,68.193 178.327,68.089 175.084,68.612 172.572,70.496 170.791,72.065 169.014,74.891 168.491,77.716 
			168.699,80.542 169.436,83.158 170.791,85.983 		"/>
		<polygon fill="#596C55" points="212.65,90.796 213.382,88.494 214.743,86.82 216.102,85.774 218.613,84.309 222.068,83.785 
			224.684,84.1 227.3,84.832 230.124,86.402 232.32,87.762 234.102,89.645 235.462,91.843 235.879,94.25 235.67,97.075 
			234.833,99.377 233.891,101.469 231.382,104.19 229.078,105.446 226.253,106.702 223.848,107.539 220.811,106.911 
			217.568,105.446 215.371,103.771 213.486,101.365 212.229,99.062 211.498,97.075 211.604,94.982 211.916,92.994 		"/>
		<polygon fill="#9CB78A" points="175.814,53.544 176.861,53.701 177.908,53.857 179.32,53.805 180.732,53.753 181.99,53.805 
			183.245,53.857 184.764,54.015 186.279,54.171 187.641,54.485 189,54.799 190.102,55.114 191.199,55.428 192.191,55.794 
			193.188,56.16 194.285,56.579 195.384,56.997 196.534,57.678 197.686,58.357 198.523,58.933 199.359,59.508 200.145,60.189 
			200.932,60.868 201.924,61.916 202.919,62.962 203.703,63.852 204.486,64.741 205.116,65.787 205.744,66.833 206.424,67.775 
			207.104,68.717 207.574,69.292 208.046,69.869 208.672,70.233 209.3,70.6 210.977,70.548 212.65,70.496 214.01,70.443 
			215.371,70.391 216.73,70.339 218.091,70.286 219.348,70.233 220.604,70.181 222.068,70.443 223.532,70.705 224.895,70.863 
			226.253,71.019 227.824,71.489 229.393,71.96 230.648,72.432 231.902,72.902 233.002,73.426 234.102,73.949 235.355,74.524 
			236.611,75.1 237.605,75.78 238.602,76.46 239.646,77.298 240.693,78.135 241.479,78.919 242.264,79.704 242.841,80.28 
			243.414,80.855 244.096,81.378 244.773,81.902 245.298,82.687 245.822,83.471 246.24,83.891 246.658,84.309 246.292,83.313 
			245.925,82.32 245.088,80.855 244.252,79.39 243.676,78.239 243.1,77.089 242.631,75.938 242.158,74.786 241.322,73.74 
			240.484,72.693 239.488,71.333 238.496,69.973 237.449,68.979 236.404,67.984 235.41,67.147 234.416,66.31 233.421,65.525 
			232.428,64.741 231.327,64.165 230.229,63.589 229.288,62.752 228.346,61.916 227.246,61.131 226.148,60.346 224.684,59.352 
			223.218,58.357 221.701,57.625 220.186,56.893 218.562,56.212 216.939,55.532 215.371,55.218 213.801,54.905 212.283,54.485 
			210.768,54.067 209.3,53.753 207.836,53.44 206.318,53.178 204.801,52.916 203.6,52.602 202.396,52.288 200.773,52.027 
			199.15,51.765 198.051,51.66 196.954,51.556 195.279,51.608 193.604,51.66 191.514,51.817 189.42,51.974 187.797,52.079 
			186.175,52.184 184.71,52.34 183.245,52.498 181.99,52.654 180.732,52.812 179.844,52.863 178.955,52.916 177.387,53.23 		"/>
		<polygon fill="#006731" points="156.248,240.119 157.137,240.559 158.027,241 158.549,241 159.072,241 159.753,240.928 
			160.436,241.1 160.904,241.393 161.374,241.751 161.794,242.137 162.213,242.542 162.525,242.953 162.842,243.368 162.943,243.73 
			163.05,244.098 162.788,244.55 162.525,245 161.898,245 161.271,245 160.537,245 159.807,244.336 158.967,244.009 
			158.132,243.788 157.607,243.839 157.085,243.915 157.033,243.221 156.979,242.534 156.665,242.007 156.352,241.48 156.303,240.8 
					"/>
	</g>
</g>
</svg>
