<?xml version="1.0" encoding="UTF-8" standalone="no"?>
<svg width="50px" height="50px" viewBox="0 0 50 50" version="1.1" xmlns="http://www.w3.org/2000/svg" xmlns:xlink="http://www.w3.org/1999/xlink" xmlns:sketch="http://www.bohemiancoding.com/sketch/ns">
    <!-- Generator: Sketch 3.5.1 (25234) - http://www.bohemiancoding.com/sketch -->
    <title>twitter-icon</title>
    <desc>Created with Sketch.</desc>
    <defs></defs>
    <g id="Page-1" stroke="none" stroke-width="1" fill="none" fill-rule="evenodd" sketch:type="MSPage">
        <g id="twitter-icon" sketch:type="MSLayerGroup">
            <g id="Page-1" sketch:type="MSShapeGroup">
                <g id="Group">
                    <path d="M24.8671234,49.7342469 C38.6008566,49.7342469 49.7342469,38.6008566 49.7342469,24.8671234 C49.7342469,11.1333904 38.6008566,0 24.8671234,0 C11.1333904,0 0,11.1333904 0,24.8671234 C0,38.6008566 11.1333904,49.7342469 24.8671234,49.7342469 L24.8671234,49.7342469 Z" id="Oval-1" fill="#E67E22"></path>
                    <path d="M43.0674977,15.6371592 C41.7844766,16.20402 40.4056657,16.5871371 38.9584884,16.7594445 C40.4356399,15.8773221 41.5699382,14.4805649 42.1041158,12.8163245 C40.7218611,13.6330057 39.1907561,14.2261701 37.5611829,14.545879 C36.2560957,13.1606852 34.3968056,12.295082 32.339176,12.295082 C28.388073,12.295082 25.1847932,15.4861997 25.1847932,19.4222037 C25.1847932,19.9808049 25.2481853,20.5247931 25.3701227,21.0464169 C19.424272,20.7491993 14.1527759,17.9117184 10.6242447,13.5997133 C10.0084354,14.652364 9.65563328,15.8766868 9.65563328,17.182843 C9.65563328,19.6555048 10.9187566,21.8370486 12.8383776,23.1151221 C11.6655593,23.0781447 10.5625107,22.7575462 9.59785328,22.2237237 C9.59734311,22.2534581 9.59734311,22.2833197 9.59734311,22.3133083 C9.59734311,25.766572 12.0633865,28.6472569 15.3361808,29.3019233 C14.735805,29.4648275 14.1037969,29.5518707 13.4512533,29.5518707 C12.9902892,29.5518707 12.54208,29.507269 12.1053502,29.424038 C13.0156716,32.2556736 15.6577333,34.3162463 18.7883099,34.3738092 C16.3398684,36.2853284 13.255082,37.4247683 9.90333451,37.4247683 C9.32591762,37.4247683 8.75640885,37.3910947 8.19672131,37.3252722 C11.3627567,39.3474698 15.1233006,40.527318 19.1634332,40.527318 C32.322467,40.527318 39.5183034,29.6669964 39.5183034,20.2486693 C39.5183034,19.9396342 39.5114157,19.632251 39.4976404,19.3266468 C40.8953285,18.3217745 42.1083249,17.0664465 43.0674977,15.6371592" id="Fill-1" fill="#FFFFFF"></path>
                </g>
            </g>
        </g>
    </g>
</svg>